<?xml version="1.0" standalone="no"?>
<!DOCTYPE svg PUBLIC "-//W3C//DTD SVG 1.1//EN" "http://www.w3.org/Graphics/SVG/1.1/DTD/svg11.dtd" >
<svg xmlns="http://www.w3.org/2000/svg">
<metadata></metadata>
<defs>
<font id="pseudonymitalic" horiz-adv-x="1134" >
<font-face units-per-em="2048" ascent="1638" descent="-410" />
<missing-glyph horiz-adv-x="577" />
<glyph unicode="&#xfb01;" horiz-adv-x="1056" d="M76 -207q43 152 55 219l158 893q-79 -2 -156 -16l27 149h151l11 60q35 189 124.5 289t262.5 100q75 0 127 -20.5t78 -49t57 -80.5l-131 -88q-23 53 -53.5 79t-90.5 26q-55 1 -93.5 -16t-63 -56t-39 -85t-27.5 -118l-8 -41h520q-26 -94 -45 -188l-117 -660 q-15 -92 15.5 -131.5t93.5 -13.5l10 -14q-15 -21 -44.5 -34.5t-63.5 -16.5t-68.5 6t-60 28.5t-38 56t-3.5 83.5l114 645h-2q17 89 19 108h-353l-194 -1114h-172z" />
<glyph unicode="&#xfb02;" horiz-adv-x="1212" d="M76 -207q4 16 14.5 50t19.5 69t17 76l162 919q-90 -5 -156 -20l27 151h151l11 60q13 73 29 127t44 106t64.5 84t92.5 52t128 20q83 0 138.5 -35.5t109.5 -114.5l-133 -90q-26 56 -57 81.5t-81 25.5q-85 0 -121 -61.5t-63 -213.5l-8 -41h80q164 0 266 21l-66 -172 q-81 20 -229 20h-74l-196 -1114h-170zM805 154l201 1140q7 53 13 117t7 76h178q-27 -96 -43 -174l-196 -1123q-15 -92 15 -131.5t93 -13.5l10 -14q-15 -21 -44.5 -34.5t-63.5 -16.5t-68.5 6t-60 28.5t-38 56t-3.5 83.5z" />
<glyph horiz-adv-x="0" />
<glyph horiz-adv-x="682" />
<glyph unicode=" "  horiz-adv-x="577" />
<glyph unicode="&#x09;" horiz-adv-x="577" />
<glyph unicode="&#xa0;" horiz-adv-x="577" />
<glyph unicode="!" horiz-adv-x="509" d="M70 98q8 46 46.5 81.5t84.5 35.5t71 -35.5t17 -81.5q-8 -48 -46 -83t-83 -35q-47 0 -73 35t-17 83zM164 373l145 919q8 55 14.5 124t6.5 71h184q-27 -96 -45 -176l-184 -938h-121z" />
<glyph unicode="&#x22;" horiz-adv-x="647" d="M250 1098l20 205q5 49 6.5 107.5t2.5 76.5h170q-48 -141 -62 -193l-51 -196h-86zM510 1098l20 192q5 53 6.5 115.5t2.5 81.5h170q-41 -108 -74 -240l-39 -149h-86z" />
<glyph unicode="#" horiz-adv-x="1277" d="M51 418l2 10l25 131l2 10q98 -10 229 -10l123 399q-125 0 -223 -10l2 10l25 132l2 10q98 -10 235 -10l57 188q34 113 58 229h164q-40 -91 -72 -194l-70 -223h353l57 188q21 70 59 229h162q-40 -91 -72 -194l-67 -223q105 0 207 10l-2 -10l-27 -132l-2 -10q-98 10 -217 10 l-123 -399q111 0 213 10l-2 -10l-27 -131l-2 -10q-98 10 -217 10h-4l-92 -297q-32 -109 -55 -223h-164q36 83 71 194l101 326h-350l-91 -291q-31 -103 -57 -229h-164q40 91 72 194l100 326q-121 0 -219 -10zM449 559h352l123 399h-353z" />
<glyph unicode="$" horiz-adv-x="960" d="M29 195l135 79q30 -161 221 -161q130 0 205 73.5t92 182.5q12 74 -13 132t-73 96.5t-107.5 73t-118.5 72t-105.5 82t-68 114.5t-6.5 159q25 146 125 238t254 112q15 96 17 149h157q-19 -66 -34 -145q221 -23 288 -213l-135 -78q-39 160 -221 160q-68 0 -122.5 -19.5 t-88 -52t-53.5 -69.5t-27 -78q-10 -56 3 -102.5t42.5 -78.5t70.5 -62.5t87.5 -55t93 -56t86.5 -64t69 -80t40 -104.5t0 -137q-25 -156 -126.5 -256.5t-266.5 -121.5q-12 -81 -15 -144h-158q27 104 35 142q-219 24 -282 213z" />
<glyph unicode="%" horiz-adv-x="1904" d="M193 985q38 208 149.5 338.5t263.5 130.5q150 0 216.5 -131t29.5 -338q-37 -209 -149.5 -339t-264.5 -130q-151 0 -216 130t-29 339zM326.5 865.5q-0.5 -56.5 11 -108t44 -82t83.5 -30.5q49 0 91.5 30.5t71.5 81.5t48.5 108.5t30.5 119.5t11.5 119t-10.5 108t-42.5 82 t-81.5 31q-51 0 -94.5 -30.5t-72.5 -82.5t-48.5 -108.5t-30.5 -118.5q-11 -63 -11.5 -119.5zM420 0q89 121 166 238l618 956q84 129 144 240h165q-96 -130 -165 -238l-676 -1044q-20 -33 -86 -152h-166zM1083 469q37 208 149.5 338.5t264.5 130.5q150 0 216.5 -131 t29.5 -338q-37 -209 -149.5 -339t-264.5 -130q-151 0 -216.5 130t-29.5 339zM1217.5 349.5q-0.5 -56.5 11 -108t44 -82t83.5 -30.5q49 0 91 30.5t71 81.5t48.5 108.5t30.5 119.5t11.5 119t-10 108.5t-42 82t-81.5 30.5q-51 0 -94.5 -30.5t-72.5 -82.5t-48.5 -108.5 t-30.5 -118.5q-11 -63 -11.5 -119.5z" />
<glyph unicode="&#x26;" horiz-adv-x="1157" d="M84 387q27 156 103.5 248.5t215.5 130.5q-152 111 -112 344q31 175 140.5 260.5t270.5 85.5q344 0 265 -401h-164q35 148 3.5 207t-132.5 59q-88 0 -147 -49t-81 -172q-28 -164 60 -232.5t291 -68.5h71q110 0 232 12l-2 -12l-21 -115l-6 -29q-13 1 -47 4.5t-65.5 5.5 t-69.5 3l-60 -344q-7 -41 -7 -73t5 -54.5t16.5 -38t24.5 -24.5t32 -14t36.5 -6t40.5 -1l-23 -133q-29 0 -49.5 1t-55 7.5t-59 18t-50 34.5t-40.5 55q-109 -116 -299 -116q-189 0 -272 96.5t-45 310.5zM242 391q-27 -146 20 -212t168 -66q96 0 158 49.5t92 181.5l59 324 q-95 -1 -158.5 -5t-119 -15.5t-89.5 -30t-61 -50.5t-42.5 -73.5t-26.5 -102.5z" />
<glyph unicode="'" horiz-adv-x="385" d="M250 1098l20 205q5 49 6.5 107.5t2.5 76.5h170q-48 -141 -62 -193l-51 -196h-86z" />
<glyph unicode="(" horiz-adv-x="538" d="M121 715q66 373 276 741q35 65 66 131h178q-5 -8 -30.5 -45t-38.5 -57t-37.5 -60.5t-47.5 -83.5q-163 -315 -219 -626q-54 -315 -2 -629q26 -115 68 -244h-178q-6 52 -17 117q-84 374 -18 756z" />
<glyph unicode=")" horiz-adv-x="538" d="M-35 -158q7 11 38 57.5t57.5 90t56.5 98.5q161 305 219 627q54 313 2 626q-24 118 -66 246h177l14 -104q89 -375 22 -768q-69 -379 -282 -750l-62 -123h-176z" />
<glyph unicode="*" horiz-adv-x="679" d="M193 1188q74 26 174 76q-68 40 -150 75l74 107q56 -54 133 -105q12 96 12 181h121q-31 -110 -43 -181q82 46 164 105l43 -107q-98 -37 -174 -75q83 -50 149 -76l-73 -105q-68 61 -134 105q-12 -88 -12 -182h-121q30 97 45 180q-54 -28 -165 -103z" />
<glyph unicode="+" horiz-adv-x="976" d="M154 637v151q102 -10 217 -10h78v82q0 105 -11 217h168q-10 -102 -10 -217v-82h74q117 0 219 10v-151q-102 10 -219 10h-74v-78q0 -117 10 -219h-168q11 112 11 219v78h-78q-115 0 -217 -10z" />
<glyph unicode="," horiz-adv-x="362" d="M-80 -266q25 60 80 221l16 55q2 7 47 178h191q-66 -124 -68 -127l-80 -180q-30 -68 -57 -147h-129z" />
<glyph unicode="-" horiz-adv-x="876" d="M125 492l27 151q98 -10 237 -10h156q116 0 221 10l-27 -151q-102 10 -217 10h-155q-137 0 -242 -10z" />
<glyph unicode="." horiz-adv-x="370" d="M16 0q30 100 33 188h184q-32 -92 -32 -188h-185z" />
<glyph unicode="/" horiz-adv-x="663" d="M-41 -92q48 90 88 186l488 1215q31 79 67 198h168q-48 -90 -88 -186l-489 -1215q-38 -98 -68 -198h-166z" />
<glyph unicode="0" horiz-adv-x="1232" d="M139 483.5q1 109.5 23 233.5q28 156 80.5 287.5t128.5 233.5t181 159t228 57q99 0 173.5 -37.5t119.5 -104t67.5 -159.5t21.5 -202.5t-23 -233.5t-59.5 -233.5t-92.5 -202.5t-123.5 -159.5t-156.5 -104t-187 -37.5t-173.5 37.5t-119.5 104t-67 159.5t-21 202.5zM301 545 q-5 -81 4 -161.5t34.5 -138.5t78 -94t127.5 -36q92 0 168.5 53t128 143.5t84.5 190.5t53 215q16 90 21 171t-4 161.5t-34.5 139t-77 94.5t-126.5 36t-140 -36t-111.5 -94.5t-84.5 -139t-61 -161.5t-39 -171q-16 -91 -21 -172z" />
<glyph unicode="1" horiz-adv-x="643" d="M37 0l2 20q67 7 99.5 47t45.5 113l183 1041h-115l2 18q67 44 103 84t75 111h127l-225 -1276q-8 -62 11.5 -96.5t78.5 -41.5l-2 -20h-385z" />
<glyph unicode="2" horiz-adv-x="1054" d="M20 0l588 700q169 207 203 344q29 126 -13 200.5t-157 74.5q-188 0 -279 -184l-120 69q73 119 175.5 184.5t250.5 65.5q175 0 255 -106t46 -277q-45 -189 -181 -360l-475 -566q140 -12 248 -12h82q82 0 129 25.5t84 89.5l21 -8l-99 -240h-758z" />
<glyph unicode="3" horiz-adv-x="1028" d="M43 229l141 70q17 -89 79 -136.5t145 -47.5q129 0 208 78t103 210q26 149 -44.5 219t-252.5 70l24 133v2q83 0 146.5 22t102 60t60.5 80.5t31 91.5q19 111 -26.5 174.5t-138.5 63.5q-191 0 -279 -184l-115 69q69 121 176 186.5t246 65.5q166 0 243 -107.5t48 -267.5 q-18 -95 -72.5 -175.5t-140.5 -133.5q198 -97 152 -364q-36 -198 -165.5 -313t-328.5 -115h-2q-130 0 -219.5 66.5t-120.5 182.5z" />
<glyph unicode="4" horiz-adv-x="1124" d="M37 342l856 1092h96l-170 -957h4q103 0 211 19l-51 -134l-16 -40q-68 17 -170 20l-29 -168q-15 -100 -18 -174h-172q37 140 53 240l18 102h-612zM303 477h371l106 608z" />
<glyph unicode="5" horiz-adv-x="1021" d="M57 211l131 86q33 -182 224 -182q130 0 213.5 86t109.5 229q14 61 9 120.5t-24 107t-70.5 77t-129.5 29.5q-160 0 -250 -96l-100 92l225 647l6 27h537l-16 -236l-23 -8q-11 71 -36 90.5t-107 19.5h-248l-158 -440q95 39 211 39q80 0 141.5 -19.5t100 -54t63 -78.5 t32.5 -97.5t6.5 -105.5t-11.5 -108q-17 -94 -54.5 -171.5t-87.5 -129.5t-111.5 -87.5t-124.5 -51.5t-128 -16q-260 0 -330 231z" />
<glyph unicode="6" horiz-adv-x="1081" d="M94 283.5q-11 92.5 10 201.5v2q28 158 76.5 287.5t110.5 227.5t148.5 181.5t180 146.5t216.5 126l53 -123q-220 -113 -345 -232t-194 -290q128 74 260 74q176 0 273.5 -119.5t58.5 -337.5q-15 -89 -56.5 -168.5t-105 -142.5t-154.5 -100t-196 -37q-103 0 -176.5 38 t-111 105.5t-48.5 160zM251.5 341.5q4.5 -67.5 24.5 -117.5t67.5 -79.5t117.5 -29.5q60 0 111 19.5t86 50.5t62 73t42 84.5t22 87.5q29 157 -27 238.5t-184 79.5q-113 0 -198 -69.5t-109 -172.5q0 -9 -4 -21q-15 -76 -10.5 -143.5z" />
<glyph unicode="7" horiz-adv-x="989" d="M188 1194l70 240h803l-4 -31q-64 -125 -165.5 -298t-180 -302.5t-161.5 -295t-130 -306.5q-32 -99 -43 -201h-176q10 36 49 156q40 134 116.5 291t150 279.5t172 289t159.5 284.5h-457q-81 0 -114.5 -21.5t-69.5 -92.5z" />
<glyph unicode="8" horiz-adv-x="1073" d="M88 416q24 133 94 233t170 160q-58 48 -80.5 124t-5.5 169q12 70 43.5 131t83 111.5t131 80t176.5 29.5q78 0 138 -19.5t95 -52.5t57 -78t23.5 -96t-5.5 -106q-35 -190 -191 -293q81 -58 116 -158t11 -231q-33 -195 -169 -317.5t-337 -122.5q-199 0 -291 121t-59 315z M237.5 306.5q7.5 -55.5 29.5 -98t73 -68t125 -25.5q73 0 131.5 25t96 69t60 97t33.5 116q27 153 -32.5 236t-182.5 81q-123 0 -212 -84.5t-115 -232.5q-14 -60 -6.5 -115.5zM426 1100q-37 -223 164 -223h6q210 0 252 229q4 23 5.5 44t-5 54t-23 56.5t-55 41t-94.5 17.5 t-101 -17.5t-70.5 -42t-43.5 -58t-24.5 -55.5t-10.5 -46z" />
<glyph unicode="9" horiz-adv-x="1085" d="M194.5 805q-18.5 87 0.5 201q37 204 175.5 326t334.5 122q197 0 284.5 -123.5t46.5 -349.5q-36 -211 -102 -373t-164 -281t-218.5 -201.5t-279.5 -145.5l-53 122q218 82 350.5 203t210.5 309q-123 -71 -256 -71q-80 0 -147 29.5t-115.5 87.5t-67 145zM356 1010 q-29 -155 27 -242.5t176 -87.5q119 0 203 74t112 198q1 7 4.5 21.5t4.5 21.5q28 155 -24 239.5t-185 84.5q-130 0 -212 -83.5t-106 -225.5z" />
<glyph unicode=":" horiz-adv-x="401" d="M16 0q30 100 33 188h184q-32 -92 -32 -188h-185zM135 672q30 100 33 190h184q-35 -100 -35 -190h-182z" />
<glyph unicode=";" horiz-adv-x="421" d="M-80 -266q25 60 80 221l16 55q2 7 47 178h191q-66 -124 -68 -127l-80 -180q-30 -68 -57 -147h-129zM147 672q30 100 33 190h185q-33 -95 -33 -190h-185z" />
<glyph unicode="&#x3c;" horiz-adv-x="1146" d="M147 674v80l654 270q53 22 192 88v-170q-97 -32 -155 -55l-449 -174l395 -152q109 -40 209 -74v-170q-142 68 -219 99z" />
<glyph unicode="=" horiz-adv-x="1030" d="M180 492v145q102 -10 219 -10h297q117 0 219 10v-145q-102 10 -219 10h-297q-117 0 -219 -10zM180 793v145q102 -10 219 -10h297q117 0 219 10v-145q-102 10 -219 10h-297q-117 0 -219 -10z" />
<glyph unicode="&#x3e;" horiz-adv-x="1138" d="M190 203v168l179 63l426 164l-447 174q-89 32 -158 55v170q110 -54 209 -96l637 -264v-78l-626 -258q-99 -40 -220 -98z" />
<glyph unicode="?" horiz-adv-x="1013" d="M201 1174q57 129 172 204.5t284 75.5q87 0 155.5 -22t111.5 -61t70 -91.5t30 -114t-8 -129.5q-15 -81 -55 -151t-75.5 -106.5t-86.5 -78.5q-28 -24 -78.5 -62.5t-72 -57.5t-50.5 -52.5t-43.5 -70.5t-22.5 -88h-155q8 51 27.5 97.5t40.5 79t58 71.5t60.5 59t69.5 58t65 54 q37 33 63 61t57 82t42 113q5 38 5.5 76t-14 74.5t-39 64.5t-70 45t-105.5 17q-105 0 -184.5 -50t-122.5 -149zM299 100q8 45 47.5 80t85.5 35q45 0 70.5 -35t17.5 -80q-9 -48 -47 -84t-84 -36t-72 36t-18 84z" />
<glyph unicode="@" horiz-adv-x="1898" d="M102 487q32 181 121.5 338t219 269.5t299 176.5t354.5 64q147 0 271 -41t211 -116.5t144.5 -180.5t71 -233t-9.5 -275v-2q-20 -109 -59 -196t-85.5 -141t-101.5 -90t-104.5 -50t-96.5 -14q-80 0 -129 25t-80 88q-132 -129 -319 -129q-198 0 -296 136.5t-54 370.5 q41 239 186.5 388t341.5 149q98 0 162 -30.5t98 -104.5l19 106h141q-28 -94 -41 -161l-102 -580q-12 -73 14.5 -100t79.5 -27q35 0 73.5 21t76.5 62t70.5 113.5t49.5 163.5v7q36 204 -19.5 365t-195 253t-340.5 92q-153 0 -291.5 -54t-244 -149t-178.5 -227.5t-101 -286.5 q-56 -311 89 -498.5t452 -187.5q261 0 409 117l64 -131q-191 -117 -492 -117q-250 0 -419 102.5t-236 287.5t-23 427zM614 487q-70 -376 240 -376q89 0 148 30t106 95l74 419q13 99 -42.5 168.5t-172.5 69.5q-133 0 -227 -112t-126 -294z" />
<glyph unicode="A" horiz-adv-x="1384" d="M-43 0l2 20q23 0 74 76l715 1247q35 66 45 107h122v-12q0 -34 9 -82l278 -1268q19 -68 43 -68l-2 -20h-207q4 23 4 49t-4 55l-51 236h-641l-135 -238q-30 -66 -35 -102h-217zM424 483h530l-145 676z" />
<glyph unicode="B" horiz-adv-x="1263" d="M55 0q3 14 12 45.5t16 61.5t13 65l195 1100q6 41 16 162h498q102 0 174.5 -17t124.5 -57t70 -110q9 -35 9 -77.5t-9 -93.5q-34 -203 -173 -301q146 -80 146 -266q0 -48 -10 -102q-36 -206 -174.5 -308t-360.5 -102h-547zM252 143h371q152 0 239.5 59t112.5 204q8 45 8 82 q0 88 -45 134q-64 66 -219 66h-373l-90 -514q-4 -20 -4 -31zM371 829h309q81 0 132 8.5t94 33.5t67.5 72t38.5 122q8 34 8 61v13q-2 32 -7.5 56t-22 40.5t-35 27t-48 17t-60 8.5t-71.5 2h-323q-4 -23 -9 -41z" />
<glyph unicode="C" horiz-adv-x="1390" d="M139 717q37 210 153 378.5t287.5 263.5t366.5 95q311 0 457 -237l-152 -103q-32 98 -117 147.5t-208 49.5q-124 0 -234.5 -51t-188 -136t-129.5 -189.5t-71 -217.5q-12 -60 -12 -119q1 -14 1 -28q4 -72 18.5 -138t50 -122.5t83.5 -98t118 -65t153 -23.5q127 0 234.5 54 t164.5 147l117 -101q-229 -243 -545 -243q-195 0 -333 95t-195 263q-34 101 -34 218q0 77 15 161z" />
<glyph unicode="D" horiz-adv-x="1359" d="M55 0q4 15 12.5 47.5t16 65.5t14.5 71l191 1076q11 88 18 174h451q139 0 249.5 -47t183.5 -138t99 -225q12 -62 12 -132q0 -82 -16 -175q-29 -170 -103 -307t-178 -226t-231.5 -136.5t-267.5 -47.5h-451zM252 143h276q107 0 201.5 34t174 102t137 179t83.5 255 q15 86 15 160q0 165 -74 268q-107 149 -334 149h-278q-1 -6 -4.5 -21t-4.5 -24l-188 -1073q-4 -20 -4 -29z" />
<glyph unicode="E" horiz-adv-x="1155" d="M55 0l17 65q16 65 26 115l189 1073q13 90 20 181h840l-21 -250l-22 -8q-11 69 -40 91.5t-110 22.5h-501q-4 -23 -9 -41l-73 -420h233q145 0 244 21l-33 -184q-84 20 -235 20h-234l-90 -512q-4 -20 -4 -31h524q82 0 129 25.5t84 89.5l21 -8l-103 -250h-852z" />
<glyph unicode="F" horiz-adv-x="1093" d="M55 0q4 15 12.5 47.5t16 65.5t14.5 71l191 1076q11 88 18 174h826l-21 -250l-20 -8q-12 70 -40.5 92t-109.5 22h-489q-4 -23 -9 -41l-82 -471h267q149 0 243 21l-30 -185q-89 21 -238 21h-268l-80 -461q-15 -100 -18 -174h-183z" />
<glyph unicode="G" horiz-adv-x="1431" d="M124 522q-1 20 -1 41q0 73 16 150q26 150 96.5 284t173.5 236t242.5 161.5t294.5 59.5q310 0 447 -237l-154 -103q-25 84 -86 133q-88 64 -229 64q-122 0 -231.5 -51t-187.5 -136t-131 -191t-73 -220q-10 -60 -11 -119q-1 -7 -1 -15q0 -51 9 -102q9 -59 30 -110.5 t57.5 -96.5t85.5 -77.5t118.5 -51t153.5 -18.5q183 0 338 90l66 379h-139q-94 0 -139.5 -17t-65.5 -53h-21l37 213h500l-66 -379q-14 -93 -14 -198q-9 -5 -26.5 -16.5t-20.5 -12.5q-212 -149 -490 -149q-112 0 -205.5 27t-159.5 75.5t-114.5 116.5t-70.5 149.5t-28 173.5z " />
<glyph unicode="H" horiz-adv-x="1396" d="M55 0q4 15 12.5 47.5t16 65.5t14.5 71l191 1076q11 88 18 174h182q-33 -120 -45 -185l-73 -422h762l75 433q11 70 19 174h182q-26 -96 -45 -185l-188 -1075q-11 -70 -19 -174h-182q2 10 18 71.5t27 112.5l88 502h-762l-90 -512q-15 -100 -18 -174h-183z" />
<glyph unicode="I" horiz-adv-x="518" d="M76 0q4 15 12.5 47.5t16 65.5t14.5 71l190 1076q14 111 19 174h182q-33 -120 -45 -185l-189 -1075q-15 -100 -18 -174h-182z" />
<glyph unicode="J" horiz-adv-x="493" d="M-276 -418l2 21q85 11 149.5 51.5t107.5 108t70 146.5t45 181l209 1176q15 112 17 168h182q-25 -90 -45 -187l-207 -1173q-49 -277 -188 -396q-116 -100 -278 -100q-31 0 -64 4z" />
<glyph unicode="K" horiz-adv-x="1228" d="M55 0q4 15 12.5 47.5t16 65.5t14.5 71l191 1076q11 88 18 174h182q-33 -120 -45 -185l-73 -418l594 506q79 69 82 97h264l-4 -21q-31 0 -146 -92l-647 -559l461 -635q40 -51 67.5 -79t47.5 -28l-3 -20h-237q3 31 -45 100l-455 615l-94 -541q-15 -100 -18 -174h-183z" />
<glyph unicode="L" horiz-adv-x="1107" d="M55 0q4 15 12.5 47.5t16 65.5t14.5 71l191 1076q11 88 18 174h182q-33 -120 -45 -185l-188 -1075q-4 -20 -4 -31h520q82 0 129 25.5t84 89.5l21 -8l-103 -250h-848z" />
<glyph unicode="M" horiz-adv-x="1652" d="M55 0q4 15 12.5 47.5t16 65.5t14.5 71l191 1076q11 88 18 174h170l307 -1119l711 1119h170q-4 -15 -12.5 -48t-16 -66t-14.5 -71l-190 -1075q-14 -111 -19 -174h-182q33 122 45 184l151 865l-679 -1067h-31l-303 1087l-158 -895q-15 -100 -18 -174h-183z" />
<glyph unicode="N" horiz-adv-x="1419" d="M55 0q4 15 12.5 47.5t16 65.5t14.5 71l191 1076q11 88 18 174h170l580 -1166l174 992q15 100 18 174h183q-4 -15 -12.5 -48t-16 -66t-14.5 -71l-191 -1075q-11 -88 -18 -174h-170l-582 1155l-172 -981q-15 -100 -18 -174h-183z" />
<glyph unicode="O" horiz-adv-x="1495" d="M139 717q26 150 97 285t171.5 235t231.5 158.5t270 58.5q112 0 206.5 -38t159 -105.5t107 -160t50.5 -202.5q2 -32 2 -65q0 -80 -13 -166q-26 -150 -97 -285t-172 -235t-232 -158.5t-271 -58.5q-185 0 -315 100t-180 268q-29 98 -30 207q0 78 15 162zM292 574 q4 -72 18.5 -137.5t47.5 -122.5t77 -99.5t106.5 -67t136.5 -24.5q109 0 210 53t174.5 138.5t124.5 190t70 212.5q12 58 12 115q-1 14 -1 28q-4 72 -17.5 137.5t-46.5 122.5t-76 99.5t-105.5 67t-135.5 24.5q-109 0 -211.5 -53t-176.5 -138.5t-125.5 -190.5t-70.5 -212 q-12 -56 -12 -112q0 -16 1 -31z" />
<glyph unicode="P" horiz-adv-x="1159" d="M55 0q4 15 12.5 47.5t16 65.5t14.5 71l191 1076q11 88 18 174h475q211 0 311 -104q74 -76 73 -207q0 -47 -9 -101q-37 -205 -175 -318.5t-349 -115.5h-305l-72 -414q-15 -100 -18 -174h-183zM354 731h303q286 0 336 279q7 41 7 75q0 85 -42 135q-60 70 -202 70h-303 q-1 -6 -4.5 -21t-4.5 -24z" />
<glyph unicode="Q" horiz-adv-x="1515" d="M139 717q26 150 97 285t171.5 235t231.5 158.5t270 58.5q112 0 206.5 -38t159 -105.5t107 -160t50.5 -202.5q2 -32 2 -65q0 -80 -13 -166q-34 -197 -142 -363.5t-265 -265.5q109 -150 259 -220q138 -63 287 -63h26q162 6 345 74l-6 -37q-240 -128 -465 -128 q-62 0 -122 10q-281 44 -476 290q-101 -34 -213 -34q-185 0 -315 100t-180 268q-30 98 -30 207q0 78 15 162zM292 574q4 -71 18.5 -137t47.5 -123t77 -99.5t106.5 -67t136.5 -24.5q109 0 210 53t174.5 138.5t124.5 190t70 212.5q12 58 12 115q0 14 -1 28q-3 71 -17 137 t-47 123t-76 99.5t-105.5 67t-135.5 24.5q-109 0 -211.5 -53t-176.5 -138.5t-125.5 -190.5t-70.5 -212q-12 -56 -12 -112q0 -15 1 -31z" />
<glyph unicode="R" horiz-adv-x="1224" d="M55 0q4 15 12.5 47.5t16 65.5t14.5 71l191 1076q11 88 18 174h502q205 0 303 -114q72 -83 72 -219q0 -50 -10 -106q-28 -160 -126 -270.5t-233 -155.5l166 -452q37 -97 63 -97l-2 -20h-213q1 13 1 26q0 34 -9 72l-164 445h-338l-63 -369q-15 -100 -18 -174h-183zM346 684 h328q126 0 218.5 83t115.5 220q9 47 9 86q-1 83 -39 137q-56 80 -198 80h-327q-4 -23 -9 -41z" />
<glyph unicode="S" horiz-adv-x="1138" d="M37 55l88 279l25 2q-5 -32 -5 -55q0 -21 4 -37q9 -32 50 -58q34 -28 103.5 -45.5t156.5 -17.5q95 0 170 24t119.5 64t70 85.5t33.5 96.5q4 26 4 49q0 34 -10 64q-16 50 -53 83t-88 59t-108.5 47.5t-115 44t-108 52t-86.5 67.5q-35 37 -51 95q-8 31 -9 68q0 30 6 63 q30 162 163.5 265.5t357.5 103.5q36 0 67 -2t60 -7.5t45 -9t47 -11.5t41 -11q76 -18 110 -18l-88 -267l-24 -2q2 15 2 29q0 83 -66 117q-72 39 -213 39q-152 0 -236.5 -63t-99.5 -150q-3 -17 -3 -33q0 -31 12 -59q18 -40 56.5 -66.5t90 -50.5t109.5 -43t115 -45.5 t106.5 -57.5t85 -79t49.5 -110q6 -29 5 -65q0 -39 -7 -86q-32 -190 -182 -306.5t-400 -116.5q-85 0 -149.5 13.5t-116 33t-80.5 24.5q-18 4 -53 4z" />
<glyph unicode="T" horiz-adv-x="1255" d="M188 1186l70 248h621h438l-17 -248l-22 -8q-9 66 -31.5 88.5t-87.5 25.5h-315q-4 -20 -8 -32l-191 -1086q-11 -88 -18 -174h-183q33 122 45 184l185 1053q3 15 8 55h-315q-65 -3 -96 -25.5t-64 -88.5z" />
<glyph unicode="U" horiz-adv-x="1366" d="M154 500l135 764q9 57 18 170h182q-36 -137 -47 -191l-131 -743q-9 -54 -9 -101q0 -108 50 -177q72 -99 260 -99q176 0 288.5 101t143.5 276l136 764q13 104 16 170h184q-36 -137 -47 -191l-131 -743q-46 -257 -202.5 -388.5t-411.5 -131.5q-447 0 -447 378q0 65 13 142z " />
<glyph unicode="V" horiz-adv-x="1294" d="M215 1413l4 21h205q-5 -36 -5 -64q0 -21 3 -39l190 -969l537 971q23 50 33 101h211l-4 -21q-25 0 -62 -61l-633 -1143q-68 -125 -98 -225h-90q1 13 1 29q0 75 -24 202l-223 1120q-16 78 -45 78z" />
<glyph unicode="W" horiz-adv-x="1851" d="M225 1413l4 21h197q-6 -50 -6 -84v-17l112 -921l500 1022h101l137 -1022l438 917q20 46 31 105h203l-5 -21q-22 0 -55 -61l-551 -1151q-61 -139 -82 -217h-92q1 20 1 42q0 76 -11 167l-119 915l-453 -938q-54 -118 -71 -186h-94q2 31 2 67q0 61 -6 139l-144 1137 q-13 86 -37 86z" />
<glyph unicode="X" horiz-adv-x="1261" d="M-23 0l3 20q26 0 106 93l494 626l-248 574q-47 100 -78 100l4 21h221q-1 -6 -1 -13q0 -34 20 -86l196 -450l346 442q56 74 60 107h229l-4 -21q-29 0 -104 -92l-461 -586l272 -631q41 -84 70 -84l-2 -20h-223q1 7 1 15q0 36 -26 98l-207 477l-373 -475q-60 -78 -65 -115 h-230z" />
<glyph unicode="Y" horiz-adv-x="1155" d="M215 1413l4 21h203q-2 -10 -2 -24q0 -36 14 -95l178 -570l387 584q39 67 45 105h209l-4 -21q-25 0 -78 -72l-507 -778l-68 -383q-15 -106 -18 -180h-183q41 166 43 178l66 381l-232 770q-29 84 -57 84z" />
<glyph unicode="Z" horiz-adv-x="1208" d="M-2 0l979 1290h-535q-81 0 -114.5 -21.5t-69.5 -92.5l-20 8l71 250h951l-971 -1280q9 -1 48.5 -4.5t75.5 -5t89 -1.5h309q82 0 129 25.5t84 89.5l20 -8l-98 -250h-948z" />
<glyph unicode="[" horiz-adv-x="606" d="M27 -158q1 4 17.5 69.5t27.5 117.5l243 1386q11 69 19 172h379l-17 -98l-6 -33q-110 12 -215 12l-9 -46q-8 -45 -13 -74h-2l-224 -1266h2q-13 -64 -20 -121q111 0 229 12l-2 -12l-20 -119h-389z" />
<glyph unicode="\" horiz-adv-x="1112" d="M182 1507h166q30 -100 68 -196l497 -1233q33 -77 80 -170h-166q-60 178 -77 221l-459 1139q-45 113 -109 239z" />
<glyph unicode="]" horiz-adv-x="606" d="M-43 -158l25 131q110 -12 215 -12q2 10 6.5 33t8 44.5t7.5 43.5h2l221 1266l21 120q-112 0 -230 -12l3 12l20 119h389q-27 -99 -45 -186l-244 -1387q-8 -55 -18 -172h-381z" />
<glyph unicode="^" horiz-adv-x="907" d="M199 1042q40 29 100 101l281 364h86l176 -401q17 -32 47 -66l-152 -94q-4 12 -11.5 38.5t-17 55.5t-24.5 66l-92 219l-178 -233q-21 -30 -97 -148l-45 37z" />
<glyph unicode="_" horiz-adv-x="1071" d="M-20 -315l26 151q102 -10 238 -10h354q119 0 221 10l-24 -151q-102 10 -217 10h-357q-136 0 -241 -10z" />
<glyph unicode="`" horiz-adv-x="552" d="M272 1706l7 139q82 -59 155 -98l107 -55q50 -26 159 -66l-57 -129q-64 51 -121 84l-119 66q-51 30 -131 59z" />
<glyph unicode="a" horiz-adv-x="1165" d="M76 398q0 62 12 126q19 102 62 196.5t108.5 175.5t161 130t207.5 49q200 0 280 -139l21 119h170q-3 -9 -12 -39t-13 -45.5t-11 -46t-13 -62.5l-123 -684q-2 -22 -2 -40q0 -55 22 -82q18 -21 46 -21q20 0 44 10l11 -14q-28 -37 -91 -49q-19 -3 -37 -4q-44 0 -85 20 q-59 28 -70 88q-120 -106 -313 -106q-83 0 -149 23t-108 63.5t-70 93t-38 114.5q-10 59 -11 118q1 3 1 6zM234 416v-20q0 -44 9 -90q11 -56 37 -97.5t77 -67.5t122 -26q97 0 180.5 38t126.5 101l64 364q6 45 6 84q0 238 -240 238q-80 0 -147 -41t-110.5 -106.5t-70.5 -132 t-40 -132.5q-12 -58 -14 -112z" />
<glyph unicode="b" horiz-adv-x="1118" d="M111 358l170 955q6 44 11 99t7 75h178q-27 -96 -43 -172l-63 -371q125 131 315 131q139 0 227 -73q89 -74 117 -197q14 -62 13 -132q0 -69 -13 -147q-43 -242 -199 -394t-374 -152q-98 0 -172.5 30.5t-116 83t-56.5 120.5q-8 35 -8 72q0 35 7 72zM260 322q-2 -13 -2 -25 q0 -69 48 -121q56 -61 169 -61q158 0 261 115.5t136 295.5q11 60 11 115q1 23 -1 45q-6 76 -29.5 132t-72.5 89t-118 33q-122 0 -218.5 -87t-124.5 -198z" />
<glyph unicode="c" horiz-adv-x="1036" d="M88 526q43 247 198 398t373 151q245 0 351 -192l-136 -97q-30 81 -85 117.5t-144 36.5q-88 0 -159 -33t-118 -92.5t-76 -131t-44 -157.5q-13 -72 -12 -132q0 -57 14 -108q15 -53 45 -90t82.5 -59t124.5 -22q187 0 276 149l109 -94q-161 -190 -412 -190q-152 0 -250 70 t-132 192q-18 66 -18 143q0 66 13 141z" />
<glyph unicode="d" horiz-adv-x="1155" d="M88 526q42 237 190.5 393t342.5 156q98 0 167.5 -35.5t106.5 -97.5l66 363q7 51 13 111.5t7 70.5h178q-26 -86 -47 -191l-194 -1106q-5 -32 -5 -56q0 -50 20 -76q18 -24 48 -23q20 0 45 10l10 -14q-29 -41 -95 -51q-17 -3 -33 -2q-48 0 -92 23q-58 31 -64 97 q-128 -118 -301 -118q-207 0 -306 151q-70 106 -70 258q0 64 13 137zM248 526q-11 -67 -12 -124q0 -103 38 -175q58 -112 209 -112q94 0 169.5 38t123.5 107l70 395q2 17 2 33q0 36 -8 70q-11 50 -39 91.5t-79.5 66t-121.5 24.5q-89 0 -165 -62t-122.5 -154.5t-64.5 -197.5z " />
<glyph unicode="e" horiz-adv-x="1064" d="M88 526q20 114 67 212.5t116.5 174t167.5 119t212 43.5q105 0 183.5 -35.5t117.5 -97.5q32 -52 33 -122q0 -3 1 -5q0 -67 -23 -113q-46 -110 -247 -192t-480 -94v-8q0 -141 66 -216q68 -77 204 -77q187 0 303 143l104 -90q-73 -87 -184.5 -137.5t-247.5 -50.5 q-223 0 -329 147q-76 106 -75 266q0 62 11 133zM252 553q212 9 372 61.5t193 130.5q15 26 15 60q0 31 -11 49q-17 33 -64 59.5t-122 26.5q-148 0 -246.5 -109t-136.5 -278z" />
<glyph unicode="f" horiz-adv-x="833" d="M76 -207q4 16 14.5 50t19.5 69t17 76l162 919q-90 -5 -156 -20l27 151h151l11 60q13 73 29 127t44 106t64.5 84t92.5 52t128 20q83 0 138.5 -35.5t109.5 -114.5l-133 -90q-26 56 -57 81.5t-81 25.5q-85 0 -121 -61.5t-63 -213.5l-8 -41h80q164 0 266 21l-66 -172 q-81 20 -229 20h-74l-196 -1114h-170z" />
<glyph unicode="g" horiz-adv-x="1071" d="M-23 -219l107 115q23 -58 56 -93.5t98.5 -58.5t164.5 -23q293 0 318 156q2 13 2 25q0 43 -31 66q-41 28 -147 28h-240q-65 0 -115.5 12.5t-91 40t-56.5 77.5q-10 29 -10 65q0 26 5 55q24 131 153 233q-21 51 -21 113q0 41 9 86q29 170 150.5 283.5t304.5 113.5 q107 0 178 -41h70q41 0 67.5 0.5t48 3t29.5 4t30.5 6.5t33.5 7l-60 -166q-55 22 -106 29q34 -67 34 -153q0 -42 -8 -89q-29 -166 -147.5 -270.5t-302.5 -104.5q-143 0 -230 68q-35 -31 -51.5 -57t-23.5 -64q-6 -35 1 -59.5t19.5 -36.5t35.5 -18.5t38 -7.5t39 -1h241 q185 0 259 -59q56 -46 56 -129q0 -26 -5 -56q-49 -295 -500 -295q-152 0 -250.5 46t-151.5 149zM332 586q6 -44 25 -77.5t61 -53t104 -19.5q119 0 184.5 67.5t86.5 176.5q7 32 7 63q0 17 -2 34q-6 47 -24 83t-60.5 58t-103.5 22q-118 0 -185.5 -74t-86.5 -186q-7 -33 -7 -63 q0 -16 1 -31z" />
<glyph unicode="h" horiz-adv-x="1136" d="M37 0q26 94 45 188l199 1121q5 45 10 101t8 77h178q-26 -84 -45 -182l-63 -369q123 139 309 139q189 0 261 -122q46 -78 47 -203q0 -69 -15 -152l-72 -408q-5 -30 -5 -55q0 -51 20 -77q18 -24 49 -24q20 0 45 11l10 -14q-22 -33 -74 -45q-29 -7 -59 -7q-22 1 -43 5 q-50 10 -83 50q-25 31 -25 74q0 15 3 31l80 459q12 68 12 122q0 220 -188 220q-107 0 -192.5 -67t-120.5 -166l-95 -535q-8 -55 -18 -172h-178z" />
<glyph unicode="i" horiz-adv-x="481" d="M84 154l127 723q15 103 18 178h179q-4 -16 -12.5 -48t-16 -65t-14.5 -70l-121 -682q-5 -32 -5 -56q0 -50 20 -76q18 -24 48 -24q20 0 45 11l10 -14q-22 -32 -74 -44q-28 -7 -56 -7q-23 0 -46 5q-50 11 -82 55q-23 32 -23 78q0 17 3 36zM283 1384q6 41 40.5 72t75.5 31 q39 -1 61 -31q18 -24 18 -55q0 -8 -1 -17q-7 -43 -41 -73.5t-74 -30.5q-42 0 -64 30q-17 22 -17 52q0 11 2 22z" />
<glyph unicode="j" horiz-adv-x="434" d="M-236 -371q0 6 5 21q237 45 309 471l133 758q15 99 18 176h179q-4 -15 -12.5 -48t-16 -66t-14.5 -71l-138 -774q-41 -234 -161 -361q-104 -109 -252 -109q-24 0 -50 3zM283 1384q8 42 41.5 72.5t74.5 30.5q38 0 61 -31q19 -24 19 -54q0 -9 -2 -18q-7 -42 -41.5 -73 t-73.5 -31q-41 0 -64 30q-17 23 -17 53q0 10 2 21z" />
<glyph unicode="k" horiz-adv-x="1058" d="M37 0q26 94 45 188l197 1117q7 50 13 111.5t7 70.5h178q-26 -84 -45 -182l-76 -431q54 62 134 110q80 50 164 74q52 15 102 15q30 0 60 -6q80 -15 128 -74q47 -59 47 -124q-1 -15 -3 -31q-14 -82 -75.5 -155.5t-160.5 -131.5t-209 -84q0 -7 -1 -14q0 -89 60 -163 q64 -80 157 -121t185 -42l-24 -127q-84 0 -167.5 25t-155 74t-123.5 114t-74 152q-13 51 -14 104q0 38 7 78q120 22 227.5 75.5t167.5 123.5q47 54 47 102q0 15 -4 29q-17 64 -99 64h-5q-107 -2 -239 -102q-91 -68 -166 -165l-89 -502q-8 -55 -18 -172h-178z" />
<glyph unicode="l" horiz-adv-x="473" d="M76 154l203 1146q7 50 13 112.5t7 74.5h178q-26 -84 -45 -184l-196 -1113q-5 -32 -5 -56q0 -50 20 -76q18 -24 48 -24q20 0 45 11l10 -14q-15 -21 -44.5 -34.5t-63.5 -16.5q-8 -1 -17 -1q-25 0 -51 7q-34 9 -60 28.5t-38 55.5q-7 21 -8 46q0 18 4 38z" />
<glyph unicode="m" horiz-adv-x="1716" d="M39 0q41 166 43 178l119 686q7 45 18 191h170l-22 -123q114 143 282 143q208 0 271 -166q58 73 149 119.5t211 46.5q174 0 246 -106q45 -66 45 -185q0 -71 -17 -161l-75 -437q-5 -31 -5 -55q0 -49 20 -75q18 -22 47 -22q20 0 46 11l10 -14q-15 -21 -44.5 -34.5 t-63.5 -16.5q-8 -1 -17 -1q-26 0 -52 7q-34 9 -60 28q-26 20 -38 56q-7 21 -7 46q0 18 4 38l78 448q15 79 15 139q0 71 -21 116q-38 83 -160 83q-115 0 -187 -80.5t-102 -200.5l-84 -477q-4 -27 -16 -182h-170l104 602q13 58 13 111q-1 9 -1 18q-2 61 -18 107.5t-57.5 74 t-104.5 27.5q-108 0 -185.5 -79.5t-100.5 -188.5l-86 -490q-16 -114 -19 -182h-178z" />
<glyph unicode="n" horiz-adv-x="1136" d="M41 0q41 166 43 178l121 694q4 37 6.5 70t4.5 65l3 48h172l-22 -129q118 149 313 149q185 -1 258 -119q46 -75 47 -201q0 -73 -16 -163l-72 -406q-5 -30 -5 -55q0 -49 20 -74q18 -23 48 -23q20 0 46 11l10 -14q-23 -32 -75 -44q-28 -7 -56 -7q-23 0 -46 5q-51 11 -83 55 q-23 32 -23 76q0 18 4 38l76 438q14 75 14 132q-1 54 -15 106t-57 81t-114 29q-124 0 -211.5 -85.5t-107.5 -184.5l-86 -488q-16 -114 -19 -182h-178z" />
<glyph unicode="o" d="M88 526q28 163 111.5 288t205 193t261.5 68q214 0 320 -151q75 -107 75 -263q0 -63 -12 -135q-43 -246 -202 -397.5t-372 -151.5q-215 3 -323 153q-77 108 -76 263q0 63 12 133zM246 526q-11 -62 -11 -116q1 -108 45 -184q66 -112 218 -113h3q150 -1 252 111 q103 112 136 302q11 64 11 120q0 108 -42 182q-64 112 -216.5 112t-257.5 -112.5t-138 -301.5z" />
<glyph unicode="p" d="M-16 -410q25 84 47 197l186 1051q9 60 9 100v22q-4 43 -27 76l2 19h178q-5 -12 -0.5 -57.5t4.5 -55.5q60 61 142 97t171 36q191 0 292 -151q72 -105 72 -259q0 -65 -13 -139q-28 -156 -103.5 -279t-193.5 -195t-258 -72q-167 0 -259 102l-57 -322q-6 -43 -11 -97.5 t-7 -72.5h-174zM268 281q14 -64 78 -115t166 -51q78 0 143.5 33t110.5 91t75.5 130t45.5 157q12 66 12 122q0 104 -39 178q-60 114 -194 114q-119 0 -210.5 -81.5t-119.5 -194.5z" />
<glyph unicode="q" horiz-adv-x="1114" d="M88 526q44 248 195.5 398.5t343.5 150.5q187 0 262 -153q8 57 12 133h176q-31 -115 -45 -189l-194 -1097q-10 -68 -19 -179h-176q26 82 45 183l55 317q-140 -110 -301 -110q-138 0 -228.5 73.5t-121.5 196.5q-17 66 -17 140q0 65 13 136zM238 367q7 -75 32 -131 t78.5 -88.5t130.5 -32.5q89 0 169 41.5t126 109.5l70 393q2 19 2 37q0 89 -53 160q-64 84 -183 84q-132 0 -230.5 -111t-131.5 -303q-12 -60 -12 -114q0 -23 2 -45z" />
<glyph unicode="r" horiz-adv-x="884" d="M57 0q29 109 45 190l115 646q9 61 9 101v22q-4 44 -27 77l2 19h172q-1 -7 -1 -18q0 -29 7 -87q93 125 276 125q165 0 256 -114l-108 -111q-50 90 -180 90q-213 0 -281 -264l-88 -506q-9 -57 -18 -170h-179z" />
<glyph unicode="s" horiz-adv-x="872" d="M4 39l78 240l22 2q-2 -17 -2 -32q0 -52 25 -77q41 -57 178 -57q129 0 197 53.5t80 130.5q3 18 3 34q0 33 -14 61q-21 40 -61.5 65.5t-91 47t-101 44.5t-90.5 53t-60 80q-13 32 -13 72q0 22 4 45q22 125 123 199.5t249 74.5q31 0 62 -4t49.5 -8t48 -11.5t39.5 -9.5 q38 -10 74 -12l-78 -235l-23 -2q3 17 3 31q0 64 -50 91q-54 25 -137 25q-92 0 -142.5 -38.5t-58.5 -94.5q-1 -8 -1 -16q0 -31 19 -57q24 -32 65.5 -52.5t92.5 -40t101 -45.5t88 -60t56 -91q10 -33 10 -71q0 -29 -5 -61q-25 -144 -139.5 -238.5t-306.5 -94.5q-25 0 -49 2 t-40 4.5t-36.5 8.5t-29.5 8.5t-29 10t-25 9.5q-52 16 -84 16z" />
<glyph unicode="t" horiz-adv-x="798" d="M150 883l28 151h146l14 84q15 102 18 176h181q-4 -13 -14 -48.5t-18 -68t-16 -71.5l-12 -72h47q169 0 271 21l-66 -172q-79 20 -229 20h-45l-82 -463q-28 -161 -28 -217v-7q3 -90 68 -100q8 -1 17 -1h5q84 0 159 90l61 -115q-113 -110 -270 -110q-63 0 -106 20t-64 50 q-21 32 -28 78q-5 31 -5 60q0 16 2 30q4 44 13 97l104 588q-84 -5 -151 -20z" />
<glyph unicode="u" horiz-adv-x="1136" d="M129 465l72 409q11 66 20 181h178q-28 -101 -43 -181l-73 -409q-13 -63 -13 -119v-16q2 -64 17.5 -111.5t59 -75.5t112.5 -28q109 0 200.5 68.5t114.5 166.5l92 527q11 74 19 178h178q-29 -104 -43 -178l-121 -689q-5 -30 -5 -55q0 -49 20 -75q18 -23 48 -23q20 0 46 10 l10 -14q-22 -29 -66 -43q-32 -10 -65 -9q-13 0 -25 1q-46 5 -82.5 36t-42.5 82q-131 -118 -323 -118q-301 0 -301 320q0 74 16 165z" />
<glyph unicode="v" horiz-adv-x="1071" d="M139 1034l2 21q55 20 103 20q4 -1 10 -1q52 -2 93 -43.5t56 -117.5l117 -602l406 744h190l-2 -21q-13 0 -30.5 -18t-29.5 -36.5t-30 -49.5l-422 -744q-40 -71 -55 -107.5t-25 -78.5h-108q1 14 1 27q1 29 -3 55q-4 38 -25 145h2l-133 623q-24 110 -44.5 147t-72.5 37z" />
<glyph unicode="w" horiz-adv-x="1437" d="M139 1036l2 21q49 18 93 18t80 -17.5t59.5 -58t29.5 -100.5l58 -547l336 703h84l94 -707l323 707h183l-2 -21q-29 0 -74 -96l-381 -801q-38 -83 -51 -137h-111q1 16 1 34q0 66 -9 159l-68 552l-272 -581q-38 -86 -59 -164h-109q0 80 -12 180l-84 678q-13 103 -34.5 140.5 t-76.5 37.5z" />
<glyph unicode="x" horiz-adv-x="1040" d="M4 0l2 20q33 0 105 89l340 426l-144 315q-53 112 -79.5 148t-67.5 36l2 21q36 17 74 19q4 0 7 1q35 0 70 -14q38 -15 72.5 -53t58.5 -95l111 -245l244 307q36 48 41 80h211l-2 -21q-33 0 -101 -84l-332 -415l199 -443q31 -72 66 -72l-2 -20h-211q1 6 1 13q0 35 -24 93 l-135 295l-242 -305q-46 -60 -51 -96h-213z" />
<glyph unicode="y" horiz-adv-x="1069" d="M106 -358l5 20q36 0 86 78l204 369l-145 741q-23 108 -45 146t-72 38l2 21q40 18 81 19h5q39 0 75 -15q37 -16 65.5 -58.5t38.5 -105.5l112 -580l354 637q27 58 35 103h205l-2 -21q-12 0 -27 -15t-25 -29.5t-28 -43.5l-682 -1214q-32 -59 -37 -90h-205z" />
<glyph unicode="z" horiz-adv-x="921" d="M-25 0l691 924h-318q-81 0 -114.5 -21.5t-69.5 -93.5l-19 8l68 238h717l-684 -912q95 -10 227 -10h86q82 0 129 25.5t84 89.5l19 -8l-97 -240h-719z" />
<glyph unicode="{" horiz-adv-x="632" d="M113 670l14 90q116 30 141 160l56 309q16 89 49 155.5t72 104.5t91 61t97.5 30t99.5 7l-16 -96q-201 0 -246 -262l-55 -309q-25 -134 -146 -205q96 -72 74 -205l-53 -309q-48 -262 151 -262l-16 -97q-37 0 -69 3.5t-67 13.5t-60 27t-49 44t-34 65t-14 89t10 117l54 309 q19 131 -84 160z" />
<glyph unicode="|" horiz-adv-x="395" d="M-12 -158q26 96 45 187l243 1386q11 69 19 172h178q-37 -142 -53 -239h-2l-221 -1266q-24 -126 -31 -240h-178z" />
<glyph unicode="}" horiz-adv-x="632" d="M-35 -158l17 97q197 0 245 262l54 309q25 138 145 205q-94 70 -72 205l54 309q48 262 -154 262l18 96q32 0 60 -3t58.5 -9.5t55 -19.5t47.5 -31t38.5 -46t24.5 -63t9 -82t-10 -104l-53 -309q-19 -131 82 -160l-15 -90q-116 -30 -141 -160l-53 -309q-16 -89 -49 -155.5 t-73 -104.5t-92 -61t-97.5 -30.5t-98.5 -7.5z" />
<glyph unicode="~" horiz-adv-x="983" d="M137 690l41 49q1 2 18 23.5t28.5 31.5t34.5 26.5t53 25t67 10.5q44 2 84.5 -13.5t70 -38.5t55 -46.5t50 -40t45.5 -17.5q30 -1 46.5 11t31.5 37l33 57l118 -70l-43 -49q-2 -2 -11 -14.5t-13 -17.5t-14 -16.5t-17 -17t-19 -15t-23.5 -14.5t-26 -10.5t-31 -8t-35.5 -3.5 q-57 -2 -109.5 21.5t-84 53.5t-64.5 55t-55 26q-53 0 -76 -45l-35 -59z" />
<glyph unicode="&#xa1;" horiz-adv-x="509" d="M8 -358q20 67 41 159l189 955h122l-149 -938q-5 -38 -16 -176h-187zM233 1030q8 48 46 83.5t83 35.5q47 0 73.5 -35.5t17.5 -83.5q-6 -45 -45.5 -81t-85.5 -36q-45 0 -71 36t-18 81z" />
<glyph unicode="&#xa2;" horiz-adv-x="1036" d="M121 713q38 222 170 368t321 174q16 94 23 179h162q-27 -94 -41 -177q196 -23 286 -188l-135 -96q-30 81 -85 117t-144 36q-88 0 -159 -33t-118 -92t-76 -130.5t-44 -157.5q-12 -69 -12.5 -128t14.5 -112t45 -90.5t82.5 -59.5t124.5 -22q186 0 276 150l109 -95 q-145 -169 -357 -188l-6 -39q-9 -61 -12 -129h-162q24 90 39 172q-184 29 -262 174t-39 367z" />
<glyph unicode="&#xa3;" horiz-adv-x="960" d="M-2 0l2 20q29 65 65.5 123.5t65.5 98t57 81.5t49 93t33 112q12 58 9 117q-64 0 -156 -10l27 156q13 -1 48.5 -5.5t63.5 -5.5q-2 13 -10 63.5t-10 72t-5.5 61t-2 71.5t7.5 64q30 169 142.5 255.5t274.5 86.5q129 0 215.5 -55.5t112.5 -155.5l-137 -80q-44 158 -207 158 q-210 0 -248 -209q-5 -30 -6 -61.5t2 -69t6.5 -63t10.5 -71.5t10 -67h133q107 0 219 11l-27 -156q-98 10 -217 10h-94q3 -62 -8 -117q-10 -59 -33.5 -116.5t-44 -91.5t-62 -95.5t-59.5 -91.5h365q82 0 129 25.5t84 89.5l20 -8l-96 -240h-729z" />
<glyph unicode="&#xa4;" horiz-adv-x="1255" d="M45 281l156 122q-81 136 -51 310q29 169 159 309q-48 57 -112 125l24 20v-2l94 80l11 8q36 -59 98 -135q153 105 326 105q169 0 290 -105q110 99 148 135l18 -22l66 -78h-2l6 -6q-120 -94 -143 -113l-15 -12q81 -136 51 -309t-157 -310q44 -50 112 -122l-24 -21v2 l-94 -80l-11 -8q-42 64 -96 133q-154 -104 -330 -104q-170 0 -290 104q-70 -61 -146 -133l-18 23l-66 77v2zM301 713q-26 -147 61 -258t234 -111q145 0 270.5 111t151.5 258t-61 257.5t-232 110.5t-271.5 -110.5t-152.5 -257.5z" />
<glyph unicode="&#xa5;" horiz-adv-x="1208" d="M233 381l27 151q98 -10 217 -10h49l6 37l-26 90h-6q-116 0 -221 -10l26 152q131 -10 160 -11l-160 533q-31 100 -61 100l4 21h201q-6 -43 10 -105l170 -549h33l360 543q44 72 49 111h211l-4 -21q-25 0 -76 -70l-368 -563q36 1 165 11l-26 -152q-98 10 -217 10h-8l-58 -86 l-6 -41h49q116 0 221 10l-26 -151q-98 10 -217 10h-49l-39 -219q-11 -69 -19 -172h-182q32 118 45 186l37 205h-49q-117 0 -222 -10z" />
<glyph unicode="&#xa6;" horiz-adv-x="395" d="M-12 -158q32 122 47 199l57 324q16 85 31 239h178q-26 -85 -47 -194l-57 -328q-24 -126 -31 -240h-178zM162 829q2 9 18 71.5t27 113.5l69 399q11 70 19 174h178q-37 -142 -53 -239h-2l-49 -279h2q-24 -126 -31 -240h-178z" />
<glyph unicode="&#xa7;" horiz-adv-x="950" d="M59 199l134 69q38 -155 204 -155q100 0 167.5 52t80.5 126q8 45 -11.5 78t-57 50.5t-86.5 35t-100.5 30.5t-99.5 37.5t-83 56t-50.5 86t-2.5 126.5q21 108 88 178q-46 62 -27 164q27 150 149.5 235.5t278.5 85.5q121 0 202 -56.5t116 -162.5l-136 -70q-37 156 -204 156 q-100 0 -167 -51.5t-81 -126.5q-8 -46 11.5 -79t57 -50.5t86.5 -35t100.5 -30.5t99.5 -37.5t83 -55.5t50.5 -85.5t2.5 -126.5q-18 -110 -88 -180q44 -63 27 -162q-27 -150 -149 -235.5t-277 -85.5q-122 0 -203 56t-115 163zM315 805q-9 -47 3 -83t36.5 -57.5t65.5 -39.5 t79 -28t88 -25.5t83 -30.5q28 40 32 88q11 56 -6 95.5t-59 63t-84.5 38t-105.5 33t-101 34.5q-27 -44 -31 -88z" />
<glyph unicode="&#xa8;" horiz-adv-x="733" d="M326 1638q6 41 39 72t71 31t61 -31t15 -72q-7 -42 -40.5 -73t-70.5 -31q-40 0 -62 30.5t-13 73.5zM612 1638q8 41 41.5 72t71.5 31t61 -31t15 -72q-7 -43 -41 -73.5t-72 -30.5t-60.5 30.5t-15.5 73.5z" />
<glyph unicode="&#xa9;" horiz-adv-x="1652" d="M141 717q35 201 160.5 370.5t308.5 268t381 98.5q197 0 344.5 -98.5t212 -268t29.5 -370.5q-27 -151 -107 -287t-192.5 -235t-255.5 -157t-291 -58t-271.5 58t-202 157t-111 235t-5.5 287zM283 717q-28 -162 23 -303.5t170 -226.5t278 -85q158 0 306 85t248 226.5 t128 303.5t-22.5 303t-168.5 226t-276 85q-159 0 -308 -85t-249.5 -226t-128.5 -303zM452.5 604q-3.5 56 8.5 111q16 88 56.5 172t101 153t146 111.5t181.5 42.5q95 0 171.5 -45.5t121.5 -130.5l-115 -82l-12 -10q-23 64 -39 82q-51 57 -149 57q-115 0 -201 -104.5 t-111 -245.5q-15 -85 -0.5 -161t65 -127.5t128.5 -51.5q99 0 174 63q8 6 16 15t12.5 15t14.5 21t16 23l9 -8h2l86 -80q-159 -176 -357 -176q-64 0 -118 19.5t-90.5 53t-63.5 79t-38.5 97t-15 107.5z" />
<glyph unicode="&#xaa;" horiz-adv-x="649" d="M111 659l24 136q108 -11 189 -11h96q74 0 190 11l-22 -136q-108 11 -187 11h-98q-77 0 -192 -11zM182 1061q15 89 83 141.5t165 52.5q83 0 119 -36l4 20q10 61 -15.5 87t-80.5 26q-95 0 -144 -60l-65 72q80 90 225 90q105 0 156 -53t30 -164l-41 -238q-11 -69 13 -96 l-4 -18h-123v41q-61 -49 -154 -49q-83 0 -133.5 46t-34.5 138zM297 1067q-7 -43 15.5 -65.5t72.5 -22.5q82 0 131 49l2 23q10 53 -19.5 77.5t-84.5 24.5q-47 0 -78.5 -22t-38.5 -64z" />
<glyph unicode="&#xab;" horiz-adv-x="1013" d="M117 567l194 197q86 90 154 176l102 -94l-301 -281l201 -282l-131 -93q-33 72 -76 146zM506 567l194 197q86 90 154 176l102 -94l-301 -281l201 -282l-131 -93q-33 72 -76 146z" />
<glyph unicode="&#xac;" horiz-adv-x="1236" d="M154 639v152q112 -11 219 -11h477q107 0 219 11v-322q0 -117 10 -219h-168q11 112 11 219v180h-549q-117 0 -219 -10z" />
<glyph unicode="&#xad;" horiz-adv-x="788" d="M82 492l27 151q98 -10 237 -10h156q116 0 221 10l-27 -151q-102 10 -217 10h-155q-140 0 -242 -10z" />
<glyph unicode="&#xae;" horiz-adv-x="1112" d="M217 1147q21 121 99 223.5t191.5 162.5t235.5 60t214.5 -60t134 -162.5t20.5 -223.5q-34 -186 -188 -317.5t-338 -131.5q-122 0 -214.5 60t-134 163.5t-20.5 225.5zM330 1147q-25 -139 55 -246.5t217 -107.5q136 0 253.5 107.5t141.5 246.5q16 89 -13 170t-97.5 131.5 t-157.5 50.5q-138 0 -256 -107t-143 -245zM457 895q23 84 32 141l48 267q8 54 12 114h123q106 -2 148.5 -37t29.5 -116q-20 -113 -137 -150l65 -141q32 -58 64 -58l-4 -20h-150q4 20 -14 61l-74 150l-16 -100q-13 -86 -13 -111h-114zM614 1178h15q98 0 116 86 q7 47 -12.5 65.5t-75.5 18.5h-14z" />
<glyph unicode="&#xaf;" horiz-adv-x="649" d="M254 1573l22 135q102 -10 238 -10h53q119 0 221 10l-24 -135q-98 10 -217 10h-51q-137 0 -242 -10z" />
<glyph unicode="&#xb0;" horiz-adv-x="473" d="M221 1339q10 64 66.5 111t122.5 47q65 0 103 -47t26 -111q-10 -67 -65.5 -114t-119.5 -47q-68 0 -106.5 47t-26.5 114zM319 1339q-6 -30 8.5 -49.5t43.5 -19.5q26 0 44.5 19.5t24.5 49.5q5 28 -7.5 47t-39.5 19q-28 0 -48.5 -19.5t-25.5 -46.5z" />
<glyph unicode="&#xb1;" horiz-adv-x="1069" d="M154 113v145q102 -10 217 -10h299q117 0 219 10v-145q-102 10 -219 10h-299q-115 0 -217 -10zM154 637v151q102 -10 217 -10h78v45q0 105 -11 217h168q-10 -102 -10 -217v-45h74q117 0 219 10v-151q-102 10 -219 10h-74v-41q0 -117 10 -219h-168q11 112 11 219v41h-78 q-115 0 -217 -10z" />
<glyph unicode="&#xb2;" horiz-adv-x="743" d="M133 733l361 426q56 69 85 118.5t42 104.5q15 60 -8.5 102t-92.5 42q-95 0 -158 -101l-96 60q47 75 118.5 122.5t168.5 47.5q54 0 96.5 -15.5t68 -42t41 -61.5t15.5 -74t-8 -80q-28 -109 -129 -231l-244 -291q68 -6 156 -6q58 1 91 20t62 66l23 -6l-84 -201h-508z" />
<glyph unicode="&#xb3;" horiz-adv-x="729" d="M156 883l120 53q13 -43 48.5 -66.5t83.5 -23.5q65 0 111 39.5t56 107.5q9 45 -2.5 78.5t-38 51.5t-57 26t-65.5 8l18 103l2 6q79 0 127 38.5t59 98.5q10 54 -14.5 88.5t-83.5 34.5q-45 0 -83.5 -23.5t-61.5 -68.5l-105 51q47 80 118.5 125t160.5 45q125 0 177.5 -72.5 t33.5 -175.5q-21 -124 -129 -193q113 -68 88 -221q-22 -124 -112 -200t-218 -76q-92 0 -153.5 47.5t-79.5 118.5z" />
<glyph unicode="&#xb4;" horiz-adv-x="552" d="M262 1626q110 39 160 66l108 55q82 44 154 98l8 -139q-80 -29 -131 -59l-121 -66q-58 -34 -118 -84z" />
<glyph unicode="&#xb5;" horiz-adv-x="1120" d="M-37 -410q34 129 45 189l121 686l72 409q11 66 20 181h178q-28 -101 -43 -181l-73 -409v-2q-13 -76 -13 -133.5t16 -108.5t59.5 -78.5t113.5 -27.5q106 0 195.5 63.5t115.5 157.5l96 541q11 74 19 178h178q-28 -101 -43 -181l-119 -677q-11 -69 -6.5 -108t27.5 -71 l-2 -18h-179q1 29 1.5 35.5t-4 30.5t-5.5 28q-127 -114 -307 -114q-141 0 -217 61l-45 -258q-4 -27 -23 -193h-178z" />
<glyph unicode="&#xb6;" horiz-adv-x="1077" d="M195 1010q20 112 96 211.5t174.5 156t187.5 56.5h166q-36 -137 -47 -191l-248 -1413q-8 -43 -13.5 -82t-7.5 -60t-5 -53t-4 -45h-179q33 119 45 187l142 807q-66 0 -128.5 34t-107.5 90t-66 136.5t-5 165.5zM625 -410q33 119 45 187l250 1417q22 117 30 240h178 q-34 -128 -45 -191l-249 -1413q-16 -83 -31 -240h-178z" />
<glyph unicode="&#xb7;" horiz-adv-x="401" d="M135 672q30 100 33 190h184q-35 -100 -35 -190h-182z" />
<glyph unicode="&#xb8;" horiz-adv-x="542" d="M-37 -293l86 35q4 -68 66 -68q33 0 59.5 20t32.5 56q6 35 -11 56.5t-51 21.5q-51 0 -75 -35l-60 53l119 154l2 14h102l-2 -14l-77 -94q69 -2 113.5 -40.5t31.5 -111.5q-12 -75 -73 -116t-126 -41q-60 0 -96 35t-41 75z" />
<glyph unicode="&#xb9;" horiz-adv-x="493" d="M131 727l4 21q46 4 67 28.5t31 73.5l111 633h-84l2 16q58 35 85.5 61.5t66.5 84.5h102l-137 -781q-12 -51 -0.5 -81.5t59.5 -34.5l-4 -21h-303z" />
<glyph unicode="&#xba;" horiz-adv-x="677" d="M113 659l24 136q108 -11 203 -11h94q90 0 205 11l-25 -136q-108 11 -200 11h-95q-91 0 -206 -11zM201 1165q23 129 108.5 209t196.5 80q110 0 166 -80t33 -209t-108.5 -208.5t-195.5 -79.5t-166.5 79.5t-33.5 208.5zM315 1165q-14 -82 12 -131t91 -49q67 0 112 49t60 131 q14 82 -13 131.5t-94 49.5t-110.5 -50t-57.5 -131z" />
<glyph unicode="&#xbb;" horiz-adv-x="1007" d="M66 285l301 280l-201 283l131 92q31 -66 76 -145l143 -232l-194 -196q-81 -85 -154 -177zM455 285l301 280l-201 283l131 92q31 -66 76 -145l143 -232l-194 -196q-81 -85 -154 -177z" />
<glyph unicode="&#xbc;" horiz-adv-x="1529" d="M156 532l4 21q46 4 67 28.5t31 73.5l111 633h-84l2 17q58 36 85.5 62.5t65.5 82.5h103l-138 -780q-10 -57 1 -85t59 -32l-4 -21h-303zM180 0q89 121 166 238l619 956q78 120 143 240h166q-103 -140 -166 -238l-676 -1044q-20 -33 -86 -152h-166zM641 264l528 686h134 l-101 -567q89 2 156 18l-58 -155q-56 14 -120 16l-2 -18q-17 -99 -25 -195h-149q21 76 36 152l13 63h-412zM862 383h211l60 340z" />
<glyph unicode="&#xbd;" horiz-adv-x="1636" d="M156 532l4 21q46 4 67 28.5t31 73.5l111 633h-84l2 17q58 36 85.5 62.5t65.5 82.5h103l-138 -780q-10 -57 1 -85t59 -32l-4 -21h-303zM195 0q80 109 165 238l619 956q78 120 143 240h164q-103 -140 -166 -238l-676 -1044q-20 -33 -86 -152h-163zM848 49l360 426 q56 69 85 118.5t42 104.5q15 60 -8 102t-92 42q-95 0 -158 -101l-96 60q47 75 118.5 122.5t168.5 47.5q54 0 96.5 -15.5t68 -42t41 -61.5t15.5 -74t-8 -80q-28 -109 -129 -231l-244 -291q67 -6 156 -6q58 1 91 20t62 66l23 -6l-84 -201h-508z" />
<glyph unicode="&#xbe;" horiz-adv-x="1726" d="M176 682l121 53q13 -43 49 -66.5t84 -23.5q65 0 110.5 39.5t57.5 108.5q8 45 -3.5 78.5t-38 51t-57 25.5t-65.5 8l19 103l2 6q79 0 127 38.5t59 98.5q10 54 -14.5 88.5t-83.5 34.5q-45 0 -84.5 -23.5t-63.5 -68.5l-102 51q47 80 118 125t160 45q125 0 177.5 -72.5 t33.5 -175.5q-21 -123 -129 -192q113 -68 88 -221q-22 -124 -112 -200.5t-219 -76.5q-92 0 -153 47.5t-81 118.5zM373 0q89 121 166 238l618 956q78 120 143 240h166q-103 -140 -166 -238l-675 -1044q-20 -33 -86 -152h-166zM840 264l528 686h133l-100 -567q88 2 155 18 l-57 -155q-56 14 -121 16l-2 -18q-16 -89 -24 -195h-150q25 88 37 152l12 63h-411zM1061 383h211l59 340z" />
<glyph unicode="&#xbf;" horiz-adv-x="954" d="M1 -37.5q-3 61.5 7 129.5q12 62 35.5 115t57.5 95.5t60 68t64 57.5q27 22 68 54l61.5 48t48.5 43.5t42.5 51t28 58.5t20.5 77h153q-7 -51 -26.5 -98t-40 -79t-58 -71.5t-60 -59.5t-69.5 -58t-65 -54q-137 -118 -162 -256q-6 -38 -7 -76t14 -74.5t39.5 -64.5t70 -45 t106.5 -17q104 0 183 50t124 149l127 -51q-57 -129 -172 -205t-284 -76q-87 0 -155.5 22t-111 61t-69.5 91.5t-30 114zM506 1028q8 48 46 84.5t83 36.5q47 0 73 -36.5t17 -84.5q-8 -45 -46.5 -80t-84.5 -35q-45 0 -71 35t-17 80z" />
<glyph unicode="&#xc0;" horiz-adv-x="1384" d="M-43 0l2 20q23 0 74 76l715 1247q35 66 45 107h122q-2 -38 9 -94l278 -1268q19 -68 43 -68l-2 -20h-207q9 46 0 104l-51 236h-641l-135 -238q-30 -66 -35 -102h-217zM424 483h530l-145 676zM684 1729l6 139q85 -61 156 -99l106 -55q42 -22 160 -65l-57 -129 q-64 51 -121 84l-119 65q-55 33 -131 60z" />
<glyph unicode="&#xc1;" horiz-adv-x="1384" d="M-43 0l2 20q23 0 74 76l715 1247q35 66 45 107h122q-2 -38 9 -94l278 -1268q19 -68 43 -68l-2 -20h-207q9 46 0 104l-51 236h-641l-135 -238q-30 -66 -35 -102h-217zM424 483h530l-145 676zM664 1649q112 39 159 65l109 55q74 40 153 99l9 -139q-76 -27 -131 -60 l-121 -65q-61 -36 -119 -84z" />
<glyph unicode="&#xc2;" horiz-adv-x="1384" d="M-43 0l2 20q23 0 74 76l715 1247q35 66 45 107h122q-2 -38 9 -94l278 -1268q19 -68 43 -68l-2 -20h-207q9 46 0 104l-51 236h-641l-135 -238q-30 -66 -35 -102h-217zM424 483h530l-145 676zM598 1630q43 13 135 72l191 131l163 -147q48 -41 93 -58l-107 -123l-33 41 q-33 42 -67 76l-74 72l-98 -74q-30 -22 -53.5 -42t-47 -42.5t-32.5 -30.5z" />
<glyph unicode="&#xc3;" horiz-adv-x="1384" d="M-43 0l2 20q23 0 74 76l715 1247q35 66 45 107h122q-2 -38 9 -94l278 -1268q19 -68 43 -68l-2 -20h-207q9 46 0 104l-51 236h-641l-135 -238q-30 -66 -35 -102h-217zM424 483h530l-145 676zM608 1651l37 49q43 55 115 67q95 15 166 -63q27 -25 46 -34t42 -5q14 3 27.5 11 t20.5 15l7 7l39 53l63 -84l-45 -47q-54 -61 -116 -72q-87 -15 -158 62l-5 5q-15 15 -23 21.5t-24.5 12.5t-37.5 4q-13 -2 -25.5 -9t-18.5 -14l-7 -6l-43 -51z" />
<glyph unicode="&#xc4;" horiz-adv-x="1384" d="M-43 0l2 20q23 0 74 76l715 1247q35 66 45 107h122q-2 -38 9 -94l278 -1268q19 -68 43 -68l-2 -20h-207q9 46 0 104l-51 236h-641l-135 -238q-30 -66 -35 -102h-217zM424 483h530l-145 676zM649 1683q6 41 39.5 72t71.5 31t61 -31t15 -72q-7 -42 -40.5 -73t-70.5 -31 q-40 0 -62.5 30.5t-13.5 73.5zM936 1683q8 41 41.5 72t71.5 31t60.5 -31t14.5 -72q-7 -43 -40.5 -73.5t-71.5 -30.5t-60.5 30.5t-15.5 73.5z" />
<glyph unicode="&#xc5;" horiz-adv-x="1384" d="M-43 0l2 20q23 0 74 76l715 1247q35 66 45 107h122q-2 -38 9 -94l278 -1268q19 -68 43 -68l-2 -20h-207q9 46 0 104l-51 236h-641l-135 -238q-30 -66 -35 -102h-217zM424 483h530l-145 676zM739 1683q11 63 65 108.5t120 45.5q63 0 101 -45.5t26 -108.5 q-12 -66 -66 -111.5t-117 -45.5q-65 0 -103 45.5t-26 111.5zM825 1683q-6 -34 10 -56.5t48 -22.5q30 0 53 22.5t29 56.5q5 32 -10.5 54t-45.5 22q-32 0 -55.5 -22.5t-28.5 -53.5z" />
<glyph unicode="&#xc6;" horiz-adv-x="1783" d="M-43 0l2 20q32 0 96 80l1000 1334h719l-21 -250l-20 -8q-12 69 -40 91.5t-108 22.5h-395q-2 -6 -5 -20.5t-5 -20.5l-74 -420h102q170 0 265 21l-31 -184q-81 20 -258 20h-103l-90 -512q-1 -5 -2 -15.5t-2 -15.5h412q84 0 132 24.5t87 90.5l18 -8l-100 -250h-745 q34 128 47 197l24 135h-465l-190 -250q-34 -53 -39 -82h-211zM504 475h383l114 660z" />
<glyph unicode="&#xc7;" horiz-adv-x="1390" d="M139 717q37 210 153 378.5t287.5 263.5t366.5 95q311 0 457 -237l-152 -103q-32 98 -117 147.5t-208 49.5q-124 0 -234.5 -51t-188 -136t-129.5 -189.5t-71 -217.5q-15 -74 -11.5 -146.5t18.5 -138.5t50.5 -122.5t83.5 -98t118 -65t153 -23.5q127 0 234.5 54t164.5 147 l117 -101q-208 -221 -488 -241l-63 -76q69 -2 113.5 -40t31.5 -112q-12 -75 -72.5 -116t-125.5 -41q-60 0 -96.5 35t-41.5 75l86 35q4 -68 66 -68q33 0 59.5 20t32.5 56q6 35 -10.5 56.5t-50.5 21.5q-52 0 -76 -35l-59 53l104 136q-182 11 -309 108t-178 260.5t-15 366.5z " />
<glyph unicode="&#xc8;" horiz-adv-x="1155" d="M55 0l17 65q16 65 26 115l189 1073q13 90 20 181h840l-21 -250l-22 -8q-11 69 -40 91.5t-110 22.5h-501q-4 -23 -9 -41l-73 -420h233q145 0 244 21l-33 -184q-84 20 -235 20h-234l-90 -512q-4 -20 -4 -31h524q82 0 129 25.5t84 89.5l21 -8l-103 -250h-852zM578 1729 l6 139q88 -63 155 -99l107 -55q42 -22 160 -65l-58 -129q-64 51 -121 84l-118 65q-55 33 -131 60z" />
<glyph unicode="&#xc9;" horiz-adv-x="1155" d="M55 0l17 65q16 65 26 115l189 1073q13 90 20 181h840l-21 -250l-22 -8q-11 69 -40 91.5t-110 22.5h-501q-4 -23 -9 -41l-73 -420h233q145 0 244 21l-33 -184q-84 20 -235 20h-234l-90 -512q-4 -20 -4 -31h524q82 0 129 25.5t84 89.5l21 -8l-103 -250h-852zM557 1649 q115 40 160 65l108 55q78 41 154 99l8 -139q-76 -27 -131 -60l-121 -65q-61 -36 -119 -84z" />
<glyph unicode="&#xca;" horiz-adv-x="1155" d="M55 0l17 65q16 65 26 115l189 1073q13 90 20 181h840l-21 -250l-22 -8q-11 69 -40 91.5t-110 22.5h-501q-4 -23 -9 -41l-73 -420h233q145 0 244 21l-33 -184q-84 20 -235 20h-234l-90 -512q-4 -20 -4 -31h524q82 0 129 25.5t84 89.5l21 -8l-103 -250h-852zM492 1630 q43 13 135 72l190 131l164 -147q49 -41 92 -58l-106 -123q-9 10 -24 29.5t-33.5 41t-43.5 46.5l-73 72l-99 -74q-30 -22 -53.5 -42t-47 -42.5t-32.5 -30.5z" />
<glyph unicode="&#xcb;" horiz-adv-x="1155" d="M55 0l17 65q16 65 26 115l189 1073q13 90 20 181h840l-21 -250l-22 -8q-11 69 -40 91.5t-110 22.5h-501q-4 -23 -9 -41l-73 -420h233q145 0 244 21l-33 -184q-84 20 -235 20h-234l-90 -512q-4 -20 -4 -31h524q82 0 129 25.5t84 89.5l21 -8l-103 -250h-852zM541 1683 q6 41 39 72t71 31t61 -31t15 -72q-7 -42 -40.5 -73t-70.5 -31q-40 0 -62 30.5t-13 73.5zM827 1683q8 41 41.5 72t71.5 31t61 -31t15 -72q-7 -43 -41 -73.5t-72 -30.5t-60.5 30.5t-15.5 73.5z" />
<glyph unicode="&#xcc;" horiz-adv-x="518" d="M76 0q4 15 12.5 47.5t16 65.5t14.5 71l190 1076q14 111 19 174h182q-33 -120 -45 -185l-189 -1075q-15 -100 -18 -174h-182zM236 1706l6 139q82 -59 155 -98l107 -55q48 -25 160 -66l-58 -129q-64 51 -121 84l-118 66q-51 30 -131 59z" />
<glyph unicode="&#xcd;" horiz-adv-x="518" d="M76 0q4 15 12.5 47.5t16 65.5t14.5 71l190 1076q14 111 19 174h182q-33 -120 -45 -185l-189 -1075q-15 -100 -18 -174h-182zM197 1626q107 38 159 66l109 55q79 42 153 98l9 -139q-80 -29 -131 -59l-121 -66q-61 -36 -119 -84z" />
<glyph unicode="&#xce;" horiz-adv-x="483" d="M63 0q32 115 46 184l188 1076q8 56 18 174h183q-26 -96 -45 -185l-189 -1075q-8 -56 -18 -174h-183zM133 1622q45 14 133 72l193 131l164 -148q49 -41 92 -57l-107 -123q-9 9 -38 46.5t-62 70.5l-74 72l-98 -74q-39 -29 -86 -71t-49 -44z" />
<glyph unicode="&#xcf;" horiz-adv-x="518" d="M76 0q4 15 12.5 47.5t16 65.5t14.5 71l190 1076q14 111 19 174h182q-33 -120 -45 -185l-189 -1075q-15 -100 -18 -174h-182zM197 1638q6 41 39 72t71 31t61 -31t15 -72q-7 -42 -40.5 -73t-70.5 -31q-40 0 -62 30.5t-13 73.5zM483 1638q8 41 41.5 72t71.5 31t61 -31 t15 -72q-7 -43 -41 -73.5t-72 -30.5t-60.5 30.5t-15.5 73.5z" />
<glyph unicode="&#xd0;" horiz-adv-x="1378" d="M74 0q27 100 45 184l82 465q-72 -3 -115 -8l27 152q54 -6 110 -9l84 476q11 70 19 174h450q139 0 250 -46.5t184.5 -137.5t99.5 -225t-5 -308q-39 -226 -155 -390.5t-277 -245.5t-349 -81h-450zM270 143h277q107 0 201.5 34t174 102t137 179t83.5 255q48 279 -59 428 t-334 149h-279q-1 -6 -4 -21t-4 -24l-82 -463h123q109 0 221 11l-27 -152q-102 10 -217 10h-123l-84 -481q-4 -16 -4 -27z" />
<glyph unicode="&#xd1;" horiz-adv-x="1419" d="M55 0q4 15 12.5 47.5t16 65.5t14.5 71l191 1076q11 88 18 174h170l580 -1166l174 992q15 100 18 174h183q-4 -15 -12.5 -48t-16 -66t-14.5 -71l-191 -1075q-11 -88 -18 -174h-170l-582 1155l-172 -981q-15 -100 -18 -174h-183zM621 1651l36 49q43 55 115 67 q95 15 166 -63q27 -25 46 -34t42 -5q14 3 27.5 11t20.5 15l7 7l39 53l64 -84l-45 -47q-54 -61 -117 -72q-87 -15 -158 62l-5 5q-15 15 -23 21.5t-24.5 12.5t-37.5 4q-13 -2 -25.5 -9t-18.5 -14l-7 -6l-43 -51z" />
<glyph unicode="&#xd2;" horiz-adv-x="1495" d="M139 717q26 150 97 285t171.5 235t231.5 158.5t270 58.5q112 0 206.5 -38t159 -105.5t107 -160t50.5 -202t-11 -231.5q-26 -150 -97 -285t-172 -235t-232 -158.5t-271 -58.5q-185 0 -315 100t-180.5 268t-14.5 369zM292 574.5q4 -71.5 18.5 -137.5t47.5 -123t77 -99.5 t106.5 -67t136.5 -24.5q109 0 210 53t174.5 138.5t124.5 190t70 212.5q15 71 11.5 142.5t-17.5 137.5t-47 123t-76 99.5t-105.5 67t-135.5 24.5q-109 0 -211.5 -53t-176.5 -138.5t-125.5 -190.5t-70.5 -212q-15 -71 -11 -142.5zM741 1729l7 139q88 -63 155 -99l107 -55 q44 -23 159 -65l-57 -129q-64 51 -121 84l-119 65q-55 33 -131 60z" />
<glyph unicode="&#xd3;" horiz-adv-x="1495" d="M139 717q26 150 97 285t171.5 235t231.5 158.5t270 58.5q112 0 206.5 -38t159 -105.5t107 -160t50.5 -202t-11 -231.5q-26 -150 -97 -285t-172 -235t-232 -158.5t-271 -58.5q-185 0 -315 100t-180.5 268t-14.5 369zM292 574.5q4 -71.5 18.5 -137.5t47.5 -123t77 -99.5 t106.5 -67t136.5 -24.5q109 0 210 53t174.5 138.5t124.5 190t70 212.5q15 71 11.5 142.5t-17.5 137.5t-47 123t-76 99.5t-105.5 67t-135.5 24.5q-109 0 -211.5 -53t-176.5 -138.5t-125.5 -190.5t-70.5 -212q-15 -71 -11 -142.5zM721 1649q115 40 160 65l108 55q78 41 154 99 l8 -139q-76 -27 -131 -60l-121 -65q-61 -36 -119 -84z" />
<glyph unicode="&#xd4;" horiz-adv-x="1495" d="M139 717q26 150 97 285t171.5 235t231.5 158.5t270 58.5q112 0 206.5 -38t159 -105.5t107 -160t50.5 -202t-11 -231.5q-26 -150 -97 -285t-172 -235t-232 -158.5t-271 -58.5q-185 0 -315 100t-180.5 268t-14.5 369zM292 574.5q4 -71.5 18.5 -137.5t47.5 -123t77 -99.5 t106.5 -67t136.5 -24.5q109 0 210 53t174.5 138.5t124.5 190t70 212.5q15 71 11.5 142.5t-17.5 137.5t-47 123t-76 99.5t-105.5 67t-135.5 24.5q-109 0 -211.5 -53t-176.5 -138.5t-125.5 -190.5t-70.5 -212q-15 -71 -11 -142.5zM655 1630q45 14 136 72l190 131l164 -147 q49 -41 92 -58l-107 -123l-33 41q-33 42 -67 76l-74 72l-98 -74q-30 -22 -53.5 -42t-47 -42.5t-32.5 -30.5z" />
<glyph unicode="&#xd5;" horiz-adv-x="1495" d="M139 717q26 150 97 285t171.5 235t231.5 158.5t270 58.5q112 0 206.5 -38t159 -105.5t107 -160t50.5 -202t-11 -231.5q-26 -150 -97 -285t-172 -235t-232 -158.5t-271 -58.5q-185 0 -315 100t-180.5 268t-14.5 369zM292 574.5q4 -71.5 18.5 -137.5t47.5 -123t77 -99.5 t106.5 -67t136.5 -24.5q109 0 210 53t174.5 138.5t124.5 190t70 212.5q15 71 11.5 142.5t-17.5 137.5t-47 123t-76 99.5t-105.5 67t-135.5 24.5q-109 0 -211.5 -53t-176.5 -138.5t-125.5 -190.5t-70.5 -212q-15 -71 -11 -142.5zM666 1651l36 49q43 55 115 67q95 15 166 -63 q27 -25 46 -34t42 -5q14 3 27.5 11t20.5 15l7 7l39 53l64 -84l-45 -47q-54 -61 -117 -72q-87 -15 -158 62l-5 5q-15 15 -23 21.5t-24.5 12.5t-37.5 4q-13 -2 -25.5 -9t-19.5 -14l-6 -6l-43 -51z" />
<glyph unicode="&#xd6;" horiz-adv-x="1495" d="M139 717q26 150 97 285t171.5 235t231.5 158.5t270 58.5q112 0 206.5 -38t159 -105.5t107 -160t50.5 -202t-11 -231.5q-26 -150 -97 -285t-172 -235t-232 -158.5t-271 -58.5q-185 0 -315 100t-180.5 268t-14.5 369zM292 574.5q4 -71.5 18.5 -137.5t47.5 -123t77 -99.5 t106.5 -67t136.5 -24.5q109 0 210 53t174.5 138.5t124.5 190t70 212.5q15 71 11.5 142.5t-17.5 137.5t-47 123t-76 99.5t-105.5 67t-135.5 24.5q-109 0 -211.5 -53t-176.5 -138.5t-125.5 -190.5t-70.5 -212q-15 -71 -11 -142.5zM707 1683q6 41 39 72t71 31t61 -31t15 -72 q-7 -42 -40.5 -73t-70.5 -31q-40 0 -62 30.5t-13 73.5zM993 1683q8 41 41.5 72t71.5 31t61 -31t15 -72q-7 -43 -41 -73.5t-72 -30.5t-60.5 30.5t-15.5 73.5z" />
<glyph unicode="&#xd7;" horiz-adv-x="923" d="M178 502q67 54 123 110l102 101l-65 67q-76 75 -160 144l84 84l21 22q54 -67 110 -123l103 -102l75 76q74 76 134 149l106 -106q-82 -68 -162 -148l-63 -63l76 -76q69 -67 149 -133l-23 -23l-63 -65l-20 -19q-69 83 -146 162l-63 64l-66 -64q-70 -72 -145 -162l-84 84z " />
<glyph unicode="&#xd8;" horiz-adv-x="1495" d="M74 -20q107 117 170 190q-78 103 -105.5 243.5t0.5 303.5q26 150 97 285t171.5 235t231.5 158.5t270 58.5q185 0 318 -100q53 67 76 100h176q-67 -70 -166 -186q80 -102 108.5 -245t-0.5 -306q-26 -150 -97 -285t-172 -235t-232 -158.5t-271 -58.5q-189 0 -321 104 l-78 -104h-176zM296.5 501.5q14.5 -109.5 63.5 -192.5l738 885l24 31q-96 86 -235 86q-109 0 -211.5 -53t-176.5 -138.5t-125.5 -190.5t-70.5 -212q-21 -106 -6.5 -215.5zM434 215q95 -92 244 -92q109 0 210 53t174.5 138.5t124.5 190t70 212.5q21 108 5.5 218t-64.5 195z " />
<glyph unicode="&#xd9;" horiz-adv-x="1366" d="M154 500l135 764q9 57 18 170h182q-36 -137 -47 -191l-131 -743q-31 -179 41 -278t260 -99q176 0 288.5 101t143.5 276l136 764q13 104 16 170h184q-36 -137 -47 -191l-131 -743q-46 -257 -202.5 -388.5t-411.5 -131.5q-525 0 -434 520zM678 1729l6 139q85 -61 156 -99 l106 -55q42 -22 160 -65l-57 -129q-64 51 -121 84l-119 65q-55 33 -131 60z" />
<glyph unicode="&#xda;" horiz-adv-x="1366" d="M154 500l135 764q9 57 18 170h182q-36 -137 -47 -191l-131 -743q-31 -179 41 -278t260 -99q176 0 288.5 101t143.5 276l136 764q13 104 16 170h184q-36 -137 -47 -191l-131 -743q-46 -257 -202.5 -388.5t-411.5 -131.5q-525 0 -434 520zM657 1649q115 40 160 65l109 55 q74 40 153 99l8 -139q-76 -27 -131 -60l-120 -65q-61 -36 -119 -84z" />
<glyph unicode="&#xdb;" horiz-adv-x="1366" d="M154 500l135 764q9 57 18 170h182q-36 -137 -47 -191l-131 -743q-31 -179 41 -278t260 -99q176 0 288.5 101t143.5 276l136 764q13 104 16 170h184q-36 -137 -47 -191l-131 -743q-46 -257 -202.5 -388.5t-411.5 -131.5q-525 0 -434 520zM592 1630q43 13 135 72l191 131 l163 -147q48 -41 93 -58l-107 -123l-33 41q-33 42 -67 76l-74 72l-98 -74q-30 -22 -53.5 -42t-47 -42.5t-32.5 -30.5z" />
<glyph unicode="&#xdc;" horiz-adv-x="1366" d="M154 500l135 764q9 57 18 170h182q-36 -137 -47 -191l-131 -743q-31 -179 41 -278t260 -99q176 0 288.5 101t143.5 276l136 764q13 104 16 170h184q-36 -137 -47 -191l-131 -743q-46 -257 -202.5 -388.5t-411.5 -131.5q-525 0 -434 520zM641 1683q6 41 39.5 72t71.5 31 t60.5 -31t14.5 -72q-7 -43 -40 -73.5t-70 -30.5q-40 0 -62.5 30.5t-13.5 73.5zM928 1683q8 41 41 72t71 31t61 -31t15 -72q-7 -43 -40.5 -73.5t-71.5 -30.5t-60.5 30.5t-15.5 73.5z" />
<glyph unicode="&#xdd;" horiz-adv-x="1155" d="M215 1413l4 21h203q-7 -38 12 -119l178 -570l387 584q39 67 45 105h209l-4 -21q-25 0 -78 -72l-507 -778l-68 -383q-15 -106 -18 -180h-183q41 166 43 178l66 381l-232 770q-29 84 -57 84zM551 1649q115 40 160 65l108 55q78 41 154 99l8 -139q-76 -27 -131 -60l-121 -65 q-61 -36 -119 -84z" />
<glyph unicode="&#xde;" horiz-adv-x="1122" d="M55 0q39 150 54 240l174 987q16 103 24 207h180q-26 -96 -45 -185l-16 -98h274q215 0 311.5 -105t59.5 -305q-33 -192 -170 -309.5t-348 -118.5h-274l-25 -139q-8 -56 -18 -174h-181zM303 457h272q286 0 334 278q25 135 -37 205t-200 70h-271z" />
<glyph unicode="&#xdf;" horiz-adv-x="1144" d="M37 0l12 48t16 64.5t15 69.5l143 817q20 110 53.5 188t90.5 135t142 84.5t202 27.5q52 0 95.5 -4t86 -14.5t73 -28t57.5 -43.5t38.5 -62t16.5 -84t-9 -108q-40 -212 -221 -326q234 -84 184 -377q-72 -407 -491 -407q-38 0 -75.5 8t-58 16t-49.5 21.5t-34 15.5l69 219 l25 2q-4 -68 19.5 -100t80.5 -41v-2q28 -4 45 -4q261 0 311 278q25 140 -45.5 205.5t-250.5 65.5h-119l22 135q374 0 426 272q10 42 7.5 74.5t-7.5 56.5t-21.5 41t-34 27.5t-45.5 17t-55 8.5t-63 2q-148 0 -214 -64.5t-97 -238.5l-144 -819q-8 -53 -18 -176h-178z" />
<glyph unicode="&#xe0;" horiz-adv-x="1165" d="M75.5 398q0.5 62 12.5 126q19 102 62 196.5t108.5 175.5t161 130t207.5 49q200 0 280 -139l21 119h170q-3 -9 -12 -39t-13 -45.5t-11 -46t-13 -62.5l-123 -684q-10 -86 20 -122t90 -11l11 -14q-28 -38 -91 -49.5t-122 16t-70 88.5q-120 -106 -313 -106q-83 0 -149 23 t-108 63.5t-70 93t-38.5 114.5t-10 124zM234.5 416q-2.5 -54 8.5 -110t37 -97.5t77 -67.5t122 -26q97 0 180.5 38t126.5 101l64 364q46 322 -234 322q-80 0 -147 -41t-110.5 -106.5t-70.5 -132t-40 -132.5q-11 -58 -13.5 -112zM496 1350l6 139q82 -59 155 -98l107 -56 q42 -22 160 -65l-58 -129q-64 51 -121 84l-118 65q-55 33 -131 60z" />
<glyph unicode="&#xe1;" horiz-adv-x="1165" d="M75.5 398q0.5 62 12.5 126q19 102 62 196.5t108.5 175.5t161 130t207.5 49q200 0 280 -139l21 119h170q-3 -9 -12 -39t-13 -45.5t-11 -46t-13 -62.5l-123 -684q-10 -86 20 -122t90 -11l11 -14q-28 -38 -91 -49.5t-122 16t-70 88.5q-120 -106 -313 -106q-83 0 -149 23 t-108 63.5t-70 93t-38.5 114.5t-10 124zM234.5 416q-2.5 -54 8.5 -110t37 -97.5t77 -67.5t122 -26q97 0 180.5 38t126.5 101l64 364q46 322 -234 322q-80 0 -147 -41t-110.5 -106.5t-70.5 -132t-40 -132.5q-11 -58 -13.5 -112zM475 1270q115 40 160 65l108 56q82 44 154 98 l8 -139q-76 -27 -131 -60l-121 -65q-58 -34 -118 -84z" />
<glyph unicode="&#xe2;" horiz-adv-x="1165" d="M75.5 398q0.5 62 12.5 126q19 102 62 196.5t108.5 175.5t161 130t207.5 49q200 0 280 -139l21 119h170q-3 -9 -12 -39t-13 -45.5t-11 -46t-13 -62.5l-123 -684q-10 -86 20 -122t90 -11l11 -14q-28 -38 -91 -49.5t-122 16t-70 88.5q-120 -106 -313 -106q-83 0 -149 23 t-108 63.5t-70 93t-38.5 114.5t-10 124zM234.5 416q-2.5 -54 8.5 -110t37 -97.5t77 -67.5t122 -26q97 0 180.5 38t126.5 101l64 364q46 322 -234 322q-80 0 -147 -41t-110.5 -106.5t-70.5 -132t-40 -132.5q-11 -58 -13.5 -112zM410 1251q43 13 135 72l190 131l164 -147 q49 -41 92 -58l-106 -123q-9 10 -24 29.5t-33.5 41t-43.5 46.5l-73 72l-99 -74q-30 -22 -53.5 -42t-47 -42.5t-32.5 -30.5z" />
<glyph unicode="&#xe3;" horiz-adv-x="1165" d="M75.5 398q0.5 62 12.5 126q19 102 62 196.5t108.5 175.5t161 130t207.5 49q200 0 280 -139l21 119h170q-3 -9 -12 -39t-13 -45.5t-11 -46t-13 -62.5l-123 -684q-10 -86 20 -122t90 -11l11 -14q-28 -38 -91 -49.5t-122 16t-70 88.5q-120 -106 -313 -106q-83 0 -149 23 t-108 63.5t-70 93t-38.5 114.5t-10 124zM234.5 416q-2.5 -54 8.5 -110t37 -97.5t77 -67.5t122 -26q97 0 180.5 38t126.5 101l64 364q46 322 -234 322q-80 0 -147 -41t-110.5 -106.5t-70.5 -132t-40 -132.5q-11 -58 -13.5 -112zM420 1272l37 49q44 56 114 68q94 15 166 -64 q27 -25 46 -34t42 -5q14 3 28 11t21 15l7 7l39 53l63 -84l-45 -47q-54 -61 -117 -72q-87 -15 -157 62q-18 18 -25.5 24.5t-25.5 13.5t-40 5q-13 -2 -25.5 -9t-19.5 -13l-6 -7l-43 -51z" />
<glyph unicode="&#xe4;" horiz-adv-x="1165" d="M75.5 398q0.5 62 12.5 126q19 102 62 196.5t108.5 175.5t161 130t207.5 49q200 0 280 -139l21 119h170q-3 -9 -12 -39t-13 -45.5t-11 -46t-13 -62.5l-123 -684q-10 -86 20 -122t90 -11l11 -14q-28 -38 -91 -49.5t-122 16t-70 88.5q-120 -106 -313 -106q-83 0 -149 23 t-108 63.5t-70 93t-38.5 114.5t-10 124zM234.5 416q-2.5 -54 8.5 -110t37 -97.5t77 -67.5t122 -26q97 0 180.5 38t126.5 101l64 364q46 322 -234 322q-80 0 -147 -41t-110.5 -106.5t-70.5 -132t-40 -132.5q-11 -58 -13.5 -112zM461 1305q6 41 39 71.5t71 30.5t61 -30.5 t15 -71.5q-7 -43 -40 -74t-70 -31q-40 0 -62.5 31t-13.5 74zM748 1305q8 41 41 71.5t71 30.5t61 -30.5t15 -71.5q-7 -43 -41 -74t-72 -31t-60.5 31t-14.5 74z" />
<glyph unicode="&#xe5;" horiz-adv-x="1165" d="M75.5 398q0.5 62 12.5 126q19 102 62 196.5t108.5 175.5t161 130t207.5 49q200 0 280 -139l21 119h170q-3 -9 -12 -39t-13 -45.5t-11 -46t-13 -62.5l-123 -684q-10 -86 20 -122t90 -11l11 -14q-28 -38 -91 -49.5t-122 16t-70 88.5q-120 -106 -313 -106q-83 0 -149 23 t-108 63.5t-70 93t-38.5 114.5t-10 124zM234.5 416q-2.5 -54 8.5 -110t37 -97.5t77 -67.5t122 -26q97 0 180.5 38t126.5 101l64 364q46 322 -234 322q-80 0 -147 -41t-110.5 -106.5t-70.5 -132t-40 -132.5q-11 -58 -13.5 -112zM551 1305q11 63 64.5 108t119.5 45 q63 0 101 -45t26 -108q-12 -66 -65.5 -112t-116.5 -46q-65 0 -103 46t-26 112zM637 1305q-6 -34 9.5 -57t47.5 -23q30 0 53 23t29 57q5 32 -10 53.5t-45 21.5q-32 0 -55.5 -22t-28.5 -53z" />
<glyph unicode="&#xe6;" horiz-adv-x="1746" d="M68 369q31 158 151 245.5t307 87.5q170 0 265 -102q18 175 -46 258.5t-192 83.5q-92 0 -169 -37.5t-118 -97.5l-100 96q70 83 176.5 127.5t228.5 44.5q123 0 214 -54t133 -159q162 213 421 213q105 0 183.5 -35.5t115.5 -97.5q32 -52 34 -121.5t-23 -118.5 q-44 -110 -245 -192t-480 -94q-2 -147 65 -224t203 -77q190 0 303 143l107 -90q-73 -86 -185.5 -137t-247.5 -51q-241 0 -344 170q-63 -82 -171 -126t-232 -44q-194 0 -291.5 104.5t-62.5 284.5zM227 373q-27 -109 28.5 -183.5t190.5 -74.5q103 0 190.5 43.5t137.5 134.5 q-4 21 -8 59q0 88 -72 151.5t-178 63.5q-112 0 -188.5 -47t-100.5 -147zM940 555q210 8 371 60.5t194 129.5q14 25 14 56t-10 53q-17 33 -64.5 59.5t-121.5 26.5q-147 0 -246 -108.5t-137 -276.5z" />
<glyph unicode="&#xe7;" horiz-adv-x="1036" d="M88 526q43 247 198 398t373 151q245 0 351 -192l-136 -97q-30 81 -85 117.5t-144 36.5q-88 0 -159 -33t-118 -92.5t-76 -131t-44 -157.5q-12 -69 -12.5 -128t14.5 -112t45 -90t82.5 -59t124.5 -22q187 0 276 149l109 -94q-148 -174 -373 -188l-61 -76q69 -2 113.5 -40 t31.5 -112q-12 -75 -73 -116t-126 -41q-60 0 -96 35t-41 75l86 35q4 -68 66 -68q33 0 59.5 20t32.5 56q6 35 -11 56.5t-51 21.5q-51 0 -75 -35l-60 53l105 136q-196 21 -281 168.5t-45 375.5z" />
<glyph unicode="&#xe8;" horiz-adv-x="1064" d="M88 526q20 114 67 212.5t116.5 174t167.5 119t212 43.5q105 0 183.5 -35.5t117.5 -97.5q32 -51 33 -121.5t-22 -118.5q-46 -110 -247 -192t-480 -94q-2 -147 66 -224t204 -77q187 0 303 143l104 -90q-73 -87 -184.5 -137.5t-247.5 -50.5q-223 0 -328.5 147t-64.5 399z M252 553q212 9 372 61.5t193 130.5q14 25 14.5 57.5t-10.5 51.5q-17 33 -64 59.5t-122 26.5q-148 0 -246.5 -109t-136.5 -278zM473 1350l6 139q79 -57 156 -98l106 -56q42 -22 160 -65l-57 -129q-64 51 -121 84l-119 65q-55 33 -131 60z" />
<glyph unicode="&#xe9;" horiz-adv-x="1064" d="M88 526q20 114 67 212.5t116.5 174t167.5 119t212 43.5q105 0 183.5 -35.5t117.5 -97.5q32 -51 33 -121.5t-22 -118.5q-46 -110 -247 -192t-480 -94q-2 -147 66 -224t204 -77q187 0 303 143l104 -90q-73 -87 -184.5 -137.5t-247.5 -50.5q-223 0 -328.5 147t-64.5 399z M252 553q212 9 372 61.5t193 130.5q14 25 14.5 57.5t-10.5 51.5q-17 33 -64 59.5t-122 26.5q-148 0 -246.5 -109t-136.5 -278zM453 1270q112 39 159 65l109 56q79 42 153 98l9 -139q-76 -27 -131 -60l-121 -65q-61 -36 -119 -84z" />
<glyph unicode="&#xea;" horiz-adv-x="1064" d="M88 526q20 114 67 212.5t116.5 174t167.5 119t212 43.5q105 0 183.5 -35.5t117.5 -97.5q32 -51 33 -121.5t-22 -118.5q-46 -110 -247 -192t-480 -94q-2 -147 66 -224t204 -77q187 0 303 143l104 -90q-73 -87 -184.5 -137.5t-247.5 -50.5q-223 0 -328.5 147t-64.5 399z M252 553q212 9 372 61.5t193 130.5q14 25 14.5 57.5t-10.5 51.5q-17 33 -64 59.5t-122 26.5q-148 0 -246.5 -109t-136.5 -278zM387 1251q43 13 135 72l191 131l164 -147q49 -41 92 -58l-107 -123l-33 42q-33 41 -67 75l-74 72l-98 -74q-30 -22 -53.5 -42t-47 -42.5 t-32.5 -30.5z" />
<glyph unicode="&#xeb;" horiz-adv-x="1064" d="M88 526q20 114 67 212.5t116.5 174t167.5 119t212 43.5q105 0 183.5 -35.5t117.5 -97.5q32 -51 33 -121.5t-22 -118.5q-46 -110 -247 -192t-480 -94q-2 -147 66 -224t204 -77q187 0 303 143l104 -90q-73 -87 -184.5 -137.5t-247.5 -50.5q-223 0 -328.5 147t-64.5 399z M252 553q212 9 372 61.5t193 130.5q14 25 14.5 57.5t-10.5 51.5q-17 33 -64 59.5t-122 26.5q-148 0 -246.5 -109t-136.5 -278zM438 1305q6 41 39.5 71.5t71.5 30.5t61 -30.5t15 -71.5q-7 -43 -40.5 -74t-70.5 -31q-40 0 -62.5 31t-13.5 74zM725 1305q8 41 41.5 71.5 t71.5 30.5t60.5 -30.5t14.5 -71.5q-8 -43 -41 -74t-71 -31t-60.5 31t-15.5 74z" />
<glyph unicode="&#xec;" horiz-adv-x="468" d="M70 154l127 720q8 59 18 181h178q-26 -96 -45 -183l-119 -682q-15 -92 15.5 -131.5t93.5 -13.5l10 -14q-15 -21 -44.5 -34.5t-63.5 -16.5t-68.5 6t-60 28.5t-38 56t-3.5 83.5zM170 1413l6 139q79 -57 156 -98l106 -55q48 -25 160 -66l-57 -129q-64 51 -121 84l-119 66 q-51 30 -131 59z" />
<glyph unicode="&#xed;" horiz-adv-x="475" d="M78 154l127 725q8 53 18 176h178q-26 -96 -45 -185l-118 -680q-15 -92 15 -131.5t93 -13.5l10 -14q-15 -21 -44.5 -34.5t-63.5 -16.5t-68.5 6t-60 28.5t-38 56t-3.5 83.5zM133 1348q115 40 160 65l108 55q78 41 154 99l8 -140q-80 -29 -131 -59l-121 -65 q-58 -34 -118 -84z" />
<glyph unicode="&#xee;" horiz-adv-x="475" d="M78 154l127 725q8 53 18 176h178q-26 -96 -45 -185l-118 -680q-15 -92 15 -131.5t93 -13.5l10 -14q-15 -21 -44.5 -34.5t-63.5 -16.5t-68.5 6t-60 28.5t-38 56t-3.5 83.5zM78 1360q43 13 135 72l190 131l164 -148q47 -39 92 -57l-106 -123l-33 41q-33 42 -67 76l-74 71 l-98 -73q-30 -22 -53 -42t-48.5 -43.5t-32.5 -29.5z" />
<glyph unicode="&#xef;" horiz-adv-x="440" d="M68 154l127 720q8 59 18 181h180q-38 -150 -49 -203l-117 -662q-15 -92 15.5 -131.5t93.5 -13.5l10 -14q-23 -32 -74.5 -44t-101.5 -2t-82 54.5t-20 114.5zM145 1384q8 41 41.5 72t71.5 31q37 0 59 -31t15 -72q-7 -42 -40.5 -73t-70.5 -31q-40 0 -62 30.5t-14 73.5z M410 1384q6 41 39 72t73 31q36 0 58 -30.5t16 -72.5q-7 -43 -41 -73.5t-72 -30.5t-59.5 30.5t-13.5 73.5z" />
<glyph unicode="&#xf0;" d="M88 526q21 124 77 228t134 173.5t172.5 108.5t192.5 39q128 0 233 -84q-53 140 -209 242q-15 -15 -32.5 -34t-38 -41t-29.5 -32l-74 78q18 15 50.5 40t45.5 36q-56 30 -137 68l100 118q116 -54 152 -77l6 6q86 92 90 96l74 -80q-29 -21 -92 -72q176 -124 238.5 -311.5 t7.5 -501.5q-44 -245 -206 -395.5t-368 -150.5t-318 150t-69 396zM246 526q-33 -190 36.5 -300.5t215.5 -110.5q148 0 252.5 110.5t138.5 300.5q34 189 -38.5 301.5t-209.5 112.5q-145 0 -252.5 -111t-142.5 -303z" />
<glyph unicode="&#xf1;" horiz-adv-x="1136" d="M41 0q41 166 43 178l121 694q4 37 6.5 70t4.5 65l3 48h172l-22 -129q118 149 313 149q185 0 258 -118.5t31 -364.5l-72 -406q-15 -91 15 -129t94 -12l10 -14q-23 -32 -75 -44t-102 -2t-82.5 54.5t-19.5 114.5l76 438q13 72 13.5 128.5t-14 109t-57.5 81.5t-114 29 q-124 0 -211.5 -85.5t-107.5 -184.5l-86 -488q-16 -114 -19 -182h-178zM420 1272l37 49q44 56 114 68q94 15 166 -64q27 -25 46 -34t42 -5q14 3 28 11t21 15l7 7l39 53l63 -84l-45 -47q-54 -61 -117 -72q-87 -15 -157 62q-18 18 -25.5 24.5t-25.5 13.5t-40 5 q-13 -2 -25.5 -9t-19.5 -13l-6 -7l-43 -51z" />
<glyph unicode="&#xf2;" d="M88 526q28 163 111.5 288t205 193t261.5 68q214 0 320 -151t63 -398q-43 -246 -202 -397.5t-372 -151.5q-215 2 -322.5 152.5t-64.5 396.5zM246 526q-33 -187 33.5 -299.5t218.5 -113.5t255 111.5t136 301.5q33 190 -31.5 302t-216.5 112t-257 -112.5t-138 -301.5z M500 1350l6 139q79 -57 156 -98l106 -56q42 -22 160 -65l-58 -129q-67 53 -120 84l-119 65q-55 33 -131 60z" />
<glyph unicode="&#xf3;" d="M88 526q28 163 111.5 288t205 193t261.5 68q214 0 320 -151t63 -398q-43 -246 -202 -397.5t-372 -151.5q-215 2 -322.5 152.5t-64.5 396.5zM246 526q-33 -187 33.5 -299.5t218.5 -113.5t255 111.5t136 301.5q33 190 -31.5 302t-216.5 112t-257 -112.5t-138 -301.5z M479 1270q115 40 160 65l109 56q79 42 153 98l8 -139q-76 -27 -131 -60l-121 -65q-58 -34 -118 -84z" />
<glyph unicode="&#xf4;" d="M88 526q28 163 111.5 288t205 193t261.5 68q214 0 320 -151t63 -398q-43 -246 -202 -397.5t-372 -151.5q-215 2 -322.5 152.5t-64.5 396.5zM246 526q-33 -187 33.5 -299.5t218.5 -113.5t255 111.5t136 301.5q33 190 -31.5 302t-216.5 112t-257 -112.5t-138 -301.5z M416 1251q43 13 135 72l190 131l164 -147q49 -41 92 -58l-106 -123l-33 42q-33 41 -67 75l-74 72l-99 -74q-30 -22 -53.5 -42t-47 -42.5t-32.5 -30.5z" />
<glyph unicode="&#xf5;" d="M88 526q28 163 111.5 288t205 193t261.5 68q214 0 320 -151t63 -398q-43 -246 -202 -397.5t-372 -151.5q-215 2 -322.5 152.5t-64.5 396.5zM246 526q-33 -187 33.5 -299.5t218.5 -113.5t255 111.5t136 301.5q33 190 -31.5 302t-216.5 112t-257 -112.5t-138 -301.5z M424 1272l37 49q44 56 114 68q94 15 166 -64q27 -25 46 -34t42 -5q14 3 28 11t21 15l7 7l39 53l63 -84l-45 -47q-54 -61 -117 -72q-87 -15 -157 62l-5 5q-15 15 -23 21.5t-24.5 12.5t-37.5 4q-13 -2 -26 -9t-20 -13l-6 -7l-43 -51z" />
<glyph unicode="&#xf6;" d="M88 526q28 163 111.5 288t205 193t261.5 68q214 0 320 -151t63 -398q-43 -246 -202 -397.5t-372 -151.5q-215 2 -322.5 152.5t-64.5 396.5zM246 526q-33 -187 33.5 -299.5t218.5 -113.5t255 111.5t136 301.5q33 190 -31.5 302t-216.5 112t-257 -112.5t-138 -301.5z M465 1305q6 41 39 71.5t71 30.5t61 -30.5t15 -71.5q-7 -43 -40 -74t-70 -31q-40 0 -62.5 31t-13.5 74zM752 1305q8 41 41 71.5t71 30.5t61 -30.5t15 -71.5q-7 -43 -41 -74t-72 -31t-60.5 31t-14.5 74z" />
<glyph unicode="&#xf7;" horiz-adv-x="978" d="M154 637v145q102 -10 217 -10h301q117 0 219 10v-145q-102 10 -219 10h-301q-115 0 -217 -10zM434 451q0 37 25 64.5t61 27.5q35 0 60.5 -27.5t25.5 -64.5q0 -39 -25.5 -68t-60.5 -29q-36 0 -61 29t-25 68zM434 975q0 37 25 64.5t61 27.5q35 0 60.5 -27.5t25.5 -64.5 q0 -38 -25.5 -66t-60.5 -28q-36 0 -61 27.5t-25 66.5z" />
<glyph unicode="&#xf8;" d="M14 -20q75 79 138 151q-107 151 -64 395q28 163 111.5 288t205 193t261.5 68q127 0 221 -57q6 8 20 27.5t21 29.5h176q-15 -16 -57 -62t-70 -77q116 -153 72 -410q-43 -246 -202 -397.5t-372 -151.5q-143 3 -235 68q-9 -13 -26 -34t-24 -31h-176zM246 526 q-28 -159 16 -264l531 637q-59 41 -152 41q-152 0 -257 -112.5t-138 -301.5zM334 166q62 -50 164 -53q152 -1 255 111.5t136 301.5q31 177 -21 281z" />
<glyph unicode="&#xf9;" horiz-adv-x="1136" d="M129 465l72 409q11 66 20 181h178q-28 -101 -43 -181l-73 -409q-15 -71 -13 -134.5t17.5 -111.5t59 -76t112.5 -28q109 0 200.5 68.5t114.5 166.5l92 527q11 74 19 178h178q-29 -104 -43 -178l-121 -689q-15 -92 15.5 -130.5t93.5 -12.5l10 -14q-21 -29 -65.5 -42.5 t-90 -8.5t-82.5 36t-43 82q-131 -118 -323 -118q-371 0 -285 485zM473 1350l6 139q79 -57 156 -98l106 -56q42 -22 160 -65l-57 -129q-64 51 -121 84l-119 65q-55 33 -131 60z" />
<glyph unicode="&#xfa;" horiz-adv-x="1136" d="M129 465l72 409q11 66 20 181h178q-28 -101 -43 -181l-73 -409q-15 -71 -13 -134.5t17.5 -111.5t59 -76t112.5 -28q109 0 200.5 68.5t114.5 166.5l92 527q11 74 19 178h178q-29 -104 -43 -178l-121 -689q-15 -92 15.5 -130.5t93.5 -12.5l10 -14q-21 -29 -65.5 -42.5 t-90 -8.5t-82.5 36t-43 82q-131 -118 -323 -118q-371 0 -285 485zM451 1270q112 39 159 65l109 56q79 42 153 98l9 -139q-76 -27 -131 -60l-121 -65q-61 -36 -119 -84z" />
<glyph unicode="&#xfb;" horiz-adv-x="1136" d="M129 465l72 409q11 66 20 181h178q-28 -101 -43 -181l-73 -409q-15 -71 -13 -134.5t17.5 -111.5t59 -76t112.5 -28q109 0 200.5 68.5t114.5 166.5l92 527q11 74 19 178h178q-29 -104 -43 -178l-121 -689q-15 -92 15.5 -130.5t93.5 -12.5l10 -14q-21 -29 -65.5 -42.5 t-90 -8.5t-82.5 36t-43 82q-131 -118 -323 -118q-371 0 -285 485zM387 1251q43 13 135 72l191 131l164 -147q49 -41 92 -58l-107 -123l-33 42q-33 41 -67 75l-74 72l-98 -74q-30 -22 -53.5 -42t-47 -42.5t-32.5 -30.5z" />
<glyph unicode="&#xfc;" horiz-adv-x="1136" d="M129 465l72 409q11 66 20 181h178q-28 -101 -43 -181l-73 -409q-15 -71 -13 -134.5t17.5 -111.5t59 -76t112.5 -28q109 0 200.5 68.5t114.5 166.5l92 527q11 74 19 178h178q-29 -104 -43 -178l-121 -689q-15 -92 15.5 -130.5t93.5 -12.5l10 -14q-21 -29 -65.5 -42.5 t-90 -8.5t-82.5 36t-43 82q-131 -118 -323 -118q-371 0 -285 485zM436 1305q6 41 39.5 71.5t71.5 30.5t61 -30.5t15 -71.5q-7 -43 -40.5 -74t-70.5 -31q-40 0 -62.5 31t-13.5 74zM723 1305q8 41 41.5 71.5t71.5 30.5t60.5 -30.5t14.5 -71.5q-8 -43 -41 -74t-71 -31t-60.5 31 t-15.5 74z" />
<glyph unicode="&#xfd;" horiz-adv-x="1069" d="M106 -358l5 20q36 0 86 78l204 369l-145 741q-23 108 -45 146t-72 38l2 21q40 18 81.5 19t79 -15t66 -58.5t38.5 -105.5l112 -580l354 637q27 58 35 103h205l-2 -21q-12 0 -27 -15t-25 -29.5t-28 -43.5l-682 -1214q-32 -59 -37 -90h-205zM467 1270q115 40 160 65l108 56 q82 44 154 98l8 -139q-76 -27 -131 -60l-121 -65q-61 -36 -119 -84z" />
<glyph unicode="&#xfe;" horiz-adv-x="1114" d="M-37 -410q34 128 45 191l271 1522q7 51 13 112t7 72h178q-26 -86 -47 -191l-65 -370q127 149 313 149q94 0 168.5 -37t122 -107t64 -172.5t-6.5 -232.5q-42 -241 -192.5 -393.5t-354.5 -152.5q-167 0 -262 106l-57 -322q-11 -70 -19 -174h-178zM252 283q13 -67 78 -117.5 t168 -50.5q76 0 139.5 31t108 87.5t74.5 129.5t46 163q34 189 -24 301.5t-189 112.5q-120 0 -218 -94.5t-120 -208.5z" />
<glyph unicode="&#xff;" horiz-adv-x="1069" d="M106 -358l5 20q36 0 86 78l204 369l-145 741q-23 108 -45 146t-72 38l2 21q40 18 81.5 19t79 -15t66 -58.5t38.5 -105.5l112 -580l354 637q27 58 35 103h205l-2 -21q-12 0 -27 -15t-25 -29.5t-28 -43.5l-682 -1214q-32 -59 -37 -90h-205zM453 1305q6 41 39 71.5t71 30.5 t61 -30.5t15 -71.5q-7 -43 -40.5 -74t-70.5 -31q-40 0 -62 31t-13 74zM739 1305q8 41 41.5 71.5t71.5 30.5t61 -30.5t15 -71.5q-7 -43 -41 -74t-72 -31t-60.5 31t-15.5 74z" />
<glyph unicode="&#x152;" horiz-adv-x="1841" d="M121 484q-9 110 10 233q27 152 99.5 287t176 234.5t240 157.5t283.5 58q113 0 186 -20h717l-21 -250l-22 -8q-10 69 -39 91.5t-104 22.5h-398q-2 -12 -10 -45l-74 -418h123q149 0 244 21l-33 -184q-81 20 -235 20h-123l-90 -512q0 -13 -4 -29h415q82 0 129 25.5t84 89.5 l21 -8l-103 -250h-731q-79 -20 -192 -20q-118 0 -217 37.5t-167 104.5t-112 159.5t-53 202.5zM295 717q-27 -154 8 -289t137 -222t254 -87q111 0 193 28q1 11 10 50l190 1087q-73 31 -182 31q-115 0 -221 -51t-183.5 -135.5t-131.5 -191t-74 -220.5z" />
<glyph unicode="&#x153;" horiz-adv-x="1863" d="M88 526q28 163 111.5 288t205 193t261.5 68q130 0 222.5 -58.5t135.5 -164.5q76 105 185.5 164t244.5 59q105 0 183.5 -35.5t115.5 -97.5q32 -52 33.5 -121.5t-23.5 -118.5q-44 -110 -244.5 -192t-480.5 -94q-2 -147 65.5 -224t203.5 -77q189 0 305 143l104 -90 q-73 -87 -185 -137.5t-247 -50.5q-137 0 -232.5 58.5t-138.5 166.5q-80 -108 -194 -168t-244 -60q-215 2 -322.5 152.5t-64.5 396.5zM246 526q-33 -187 33.5 -299.5t218.5 -113.5t255 111.5t136 301.5q33 190 -31.5 302t-216.5 112t-257 -112.5t-138 -301.5zM1055 555 q210 8 371 60.5t194 129.5q14 25 14.5 57.5t-10.5 51.5q-17 33 -64.5 59.5t-121.5 26.5q-147 0 -246 -108.5t-137 -276.5z" />
<glyph unicode="&#x178;" horiz-adv-x="1155" d="M215 1413l4 21h203q-7 -38 12 -119l178 -570l387 584q39 67 45 105h209l-4 -21q-25 0 -78 -72l-507 -778l-68 -383q-15 -106 -18 -180h-183q41 166 43 178l66 381l-232 770q-29 84 -57 84zM532 1638q6 41 39.5 72t71.5 31t61 -31t15 -72q-7 -42 -40.5 -73t-70.5 -31 q-40 0 -62.5 30.5t-13.5 73.5zM819 1638q8 41 41.5 72t71.5 31t61 -31t15 -72q-7 -43 -41 -73.5t-72 -30.5t-60.5 30.5t-15.5 73.5z" />
<glyph unicode="&#x2c6;" horiz-adv-x="720" d="M262 1622q43 13 135 72l191 131l164 -148q47 -39 92 -57l-107 -123l-33 41q-33 42 -67 76l-72 72l-100 -74q-30 -22 -53.5 -42t-47 -42.5t-32.5 -30.5z" />
<glyph unicode="&#x2dc;" horiz-adv-x="737" d="M283 1630l36 49q44 56 115 68q94 15 166 -64q26 -25 45 -33.5t43 -4.5q14 3 27.5 11t20.5 14l7 7l39 54l64 -84l-45 -48q-53 -60 -117 -71q-88 -15 -158 61l-5 5q-15 15 -23 21.5t-24.5 12.5t-37.5 4q-13 -2 -25.5 -9t-18.5 -13l-7 -6l-43 -52z" />
<glyph unicode="&#x2000;" horiz-adv-x="934" />
<glyph unicode="&#x2001;" horiz-adv-x="1868" />
<glyph unicode="&#x2002;" horiz-adv-x="934" />
<glyph unicode="&#x2003;" horiz-adv-x="1868" />
<glyph unicode="&#x2004;" horiz-adv-x="622" />
<glyph unicode="&#x2005;" horiz-adv-x="467" />
<glyph unicode="&#x2006;" horiz-adv-x="311" />
<glyph unicode="&#x2007;" horiz-adv-x="311" />
<glyph unicode="&#x2008;" horiz-adv-x="233" />
<glyph unicode="&#x2009;" horiz-adv-x="373" />
<glyph unicode="&#x200a;" horiz-adv-x="103" />
<glyph unicode="&#x2010;" horiz-adv-x="876" d="M125 492l27 151q98 -10 237 -10h156q116 0 221 10l-27 -151q-102 10 -217 10h-155q-137 0 -242 -10z" />
<glyph unicode="&#x2011;" horiz-adv-x="876" d="M125 492l27 151q98 -10 237 -10h156q116 0 221 10l-27 -151q-102 10 -217 10h-155q-137 0 -242 -10z" />
<glyph unicode="&#x2012;" horiz-adv-x="876" d="M125 492l27 151q98 -10 237 -10h156q116 0 221 10l-27 -151q-102 10 -217 10h-155q-137 0 -242 -10z" />
<glyph unicode="&#x2013;" horiz-adv-x="1075" d="M125 492l27 151q98 -10 215 -10h376q117 0 222 10l-27 -151q-98 10 -217 10h-377q-114 0 -219 -10z" />
<glyph unicode="&#x2014;" horiz-adv-x="1656" d="M125 492l27 151q98 -10 237 -10h938q116 0 221 10l-28 -151q-98 10 -217 10h-936q-137 0 -242 -10z" />
<glyph unicode="&#x2018;" horiz-adv-x="405" d="M213 1118l33 189l141 180h68l-109 -180h88q-30 -100 -33 -189h-188z" />
<glyph unicode="&#x2019;" horiz-adv-x="405" d="M225 1118l109 180h-90q32 92 35 189h188l-33 -189l-143 -180h-66z" />
<glyph unicode="&#x201a;" horiz-adv-x="405" d="M-4 -180l108 180h-88q30 100 33 188h189l-33 -188l-142 -180h-67z" />
<glyph unicode="&#x201c;" horiz-adv-x="675" d="M211 1118l33 189l143 180h66l-109 -180h90q-32 -92 -35 -189h-188zM481 1118l33 189l143 180h66l-109 -180h91q-32 -92 -35 -189h-189z" />
<glyph unicode="&#x201d;" horiz-adv-x="673" d="M225 1118l109 180h-90q32 92 35 189h188l-33 -189l-143 -180h-66zM494 1118l108 180h-88q30 100 33 189h190l-35 -189l-141 -180h-67z" />
<glyph unicode="&#x201e;" horiz-adv-x="675" d="M-4 -180l108 180h-90q32 92 35 188h189l-33 -188l-144 -180h-65zM266 -180l109 180h-90q31 89 34 188h189l-33 -188l-143 -180h-66z" />
<glyph unicode="&#x2022;" horiz-adv-x="522" d="M150 766q4 66 54 114t113 48q60 0 101 -48t35 -114q-8 -68 -57.5 -117t-110.5 -49q-63 0 -103 49t-32 117z" />
<glyph unicode="&#x2026;" horiz-adv-x="1118" d="M16 0q30 100 33 188h184q-32 -92 -32 -188h-185zM389 0q30 100 33 188h184q-33 -95 -33 -188h-184zM764 0q30 100 33 188h184q-35 -100 -35 -188h-182z" />
<glyph unicode="&#x202f;" horiz-adv-x="373" />
<glyph unicode="&#x2039;" horiz-adv-x="618" d="M115 567l194 197q86 90 154 176l102 -94l-301 -281l201 -282l-131 -93q-33 72 -76 146z" />
<glyph unicode="&#x203a;" horiz-adv-x="618" d="M66 285l301 280l-201 283l133 92q39 -84 76 -145l143 -232l-194 -196q-90 -93 -154 -177z" />
<glyph unicode="&#x2044;" horiz-adv-x="303" d="M-371 0q89 121 166 238l619 956q78 120 143 240h164q-103 -140 -166 -238l-676 -1044q-20 -33 -86 -152h-164z" />
<glyph unicode="&#x205f;" horiz-adv-x="467" />
<glyph unicode="&#x20ac;" horiz-adv-x="1196" d="M82 492l24 143q91 -9 119 -10l13 92l16 78q-14 -1 -121 -11l25 144q94 -9 129 -10q79 250 225.5 393t357.5 143q128 0 221 -63.5t140 -176.5l-139 -79q-21 82 -84.5 133t-157.5 51q-77 0 -142 -30.5t-114.5 -86.5t-86 -126t-63.5 -158h195q119 0 221 10l-24 -144 q-112 11 -218 11h-206q-2 -11 -7.5 -37.5t-7.5 -40.5q-5 -24 -14 -92h205q116 0 221 10l-27 -143q-98 10 -217 10h-192q-11 -387 272 -387q87 0 167.5 49t131.5 133l111 -78q-85 -112 -201 -175.5t-238 -63.5q-109 0 -188.5 37.5t-126.5 108t-68 164t-18 212.5 q-33 -1 -133 -10z" />
<glyph unicode="&#x2122;" horiz-adv-x="1327" d="M199 1266l55 168h305h178l-2 -168l-24 -9q-9 49 -22 64.5t-42 15.5h-115l-7.5 -37.5t-8.5 -46.5l-35 -200q-12 -78 -20 -168h-125q32 122 51 239h2l17 90h-3q15 76 21 123h-115q-29 0 -48 -15.5t-44 -64.5zM731 885q32 122 51 239l13 70q25 134 32 240h115l113 -330 l229 330h115q-34 -138 -41 -174l-35 -207q-12 -78 -20 -168h-125q32 122 51 239h2l20 117l-227 -356h-12l-105 358l-33 -190q-15 -94 -18 -168h-125z" />
<glyph unicode="&#x25fc;" horiz-adv-x="1075" d="M0 0v1075h1075v-1075h-1075z" />
<glyph unicode="&#xfb03;" horiz-adv-x="1568" d="M80 -207q34 128 45 191l164 921q-86 -3 -156 -18l27 151h151l8 41q32 178 120 276.5t253 98.5q157 0 234 -98q95 131 291 131q102 0 159.5 -36.5t102.5 -113.5l-133 -88q-23 55 -55.5 80.5t-90.5 26.5q-102 1 -148 -63.5t-73 -213.5l-6 -41h520q-34 -122 -47 -188 l-115 -660q-15 -92 15.5 -131.5t93.5 -13.5l10 -14q-23 -32 -75 -44t-102.5 -2t-83 54.5t-20.5 114.5l115 647q5 29 16 106h-352l-194 -1114h-168q37 140 47 189l162 925h-353l-196 -1114h-166zM465 1038h354l10 58v10q19 97 -22 156t-127 59q-92 1 -140 -63t-71 -197z" />
<glyph horiz-adv-x="2732" d="M14 -10l25 149q102 -10 237 -10h2057q119 0 221 10l-25 -149q-102 10 -217 10h-2056q-140 0 -242 -10zM61 262l5 17q17 0 43 43l430 745q40 76 49 113h117q-2 -39 22 -158l150 -672q17 -71 36 -71l-4 -17h-164q6 30 3 70l-29 137h-393l-68 -119q-21 -47 -31 -88h-166z M244 1294l26 150q98 -10 238 -10h2056q116 0 221 10l-26 -150q-108 11 -217 11h-2057q-129 0 -241 -11zM389 580h305l-82 395zM981 262q29 120 33 139l108 619q17 96 17 147h139l354 -678l92 525q15 107 17 153h149q-32 -130 -35 -149l-110 -627q-3 -18 -14 -129h-140 l-354 670l-94 -541q-6 -41 -15 -129h-147zM1858 262q3 13 10 38t13 49.5t11 51.5l107 613q15 91 18 153h297q188 -2 283.5 -118.5t58.5 -331.5q-39 -215 -176.5 -334t-325.5 -121h-296zM2017 375h154q131 0 224.5 85t123.5 255q31 169 -33 254.5t-194 85.5h-154 q-6 -25 -12 -58l-105 -591q0 -11 -4 -31z" />
<glyph horiz-adv-x="1775" d="M14 -10l25 149q102 -10 237 -10h1102q116 0 221 10l-26 -149q-102 10 -217 10h-1100q-140 0 -242 -10zM61 262l5 17q17 0 43 43l413 718q26 48 34.5 64.5t17.5 37t14 38.5h117q-2 -39 22 -158l150 -672q17 -71 36 -71l-4 -17h-164q6 30 3 70l-29 137h-393l-68 -119 q-21 -47 -31 -88h-166zM244 1294l26 150q98 -10 238 -10h1100q116 0 221 10l-27 -150q-108 11 -217 11h-1100q-129 0 -241 -11zM389 580h305l-82 395zM1001 967l60 200h422h272l-12 -200l-21 -6q-6 59 -28.5 76.5t-91.5 17.5h-148q-3 -13 -16 -88h-2l-101 -578 q-8 -56 -12 -127h-149q30 123 34 141l105 598q1 5 8 54h-147q-68 0 -96.5 -17.5t-59.5 -76.5z" />
<glyph horiz-adv-x="1634" d="M14 -10l25 149q102 -10 237 -10h961q116 0 221 10l-26 -149q-102 10 -218 10h-958q-140 0 -242 -10zM61 262q17 59 37 154l107 604q14 107 16 147h367q253 0 213 -231q-21 -112 -101 -180q109 -61 80 -226q-14 -77 -44.5 -130t-78 -82.5t-103 -42t-128.5 -13.5h-365z M219 375h223q93 0 142.5 36t62.5 119q16 86 -25 121t-124 35h-224zM244 1294l26 150q98 -10 238 -10h958q117 0 222 10l-27 -150q-108 11 -217 11h-959q-129 0 -241 -11zM293 795h203q80 0 119.5 33.5t52.5 101.5q10 68 -16 96.5t-87 28.5h-225zM932 1149l2 18h166 q-6 -36 16 -116l98 -306l226 340q30 51 35 82h163l-2 -18q-25 0 -90 -94l-289 -445l-36 -196q-8 -57 -17 -152h-149q22 71 32 127l39 217l-149 481q-23 62 -45 62z" />
<glyph horiz-adv-x="1941" d="M139 717q37 210 153 378.5t287.5 263.5t366.5 95q311 0 457 -237l-152 -103q-25 97 -114 147t-211 50q-124 0 -234.5 -51t-188 -136t-129.5 -189.5t-71 -217.5q-15 -74 -11.5 -146.5t19 -138.5t51 -122.5t83.5 -98t117.5 -65t152.5 -23.5q128 0 236 53.5t163 147.5 l117 -101q-229 -243 -545 -243q-195 0 -333 95t-195 263.5t-19 378.5zM645 260q1 2 17 59t24 99l107 608q0 2 14 150h182q-31 -115 -45 -189l-29 -160h762l80 459q11 72 15 148h182q-26 -96 -45 -185l-189 -1075q-8 -56 -18 -174h-182q30 113 39 156l94 530h-762l-45 -250 q-14 -112 -19 -176h-182z" />
<glyph horiz-adv-x="2447" d="M14 -10l25 149q102 -10 237 -10h1772q119 0 221 10l-24 -149q-102 10 -217 10h-1772q-140 0 -242 -10zM61 262q21 83 31 127l115 653q10 69 14 125h539l-15 -170l-16 -4q-5 37 -23 49.5t-73 12.5h-293q-1 -6 -4 -19.5t-5.5 -26t-4.5 -24.5l-39 -223h143q82 0 168 8 l-23 -129q-82 8 -165 8h-144l-45 -260q-5 -32 -9 -75t-5 -52h-146zM244 1294l26 150q98 -10 238 -10h1771q117 0 222 10l-27 -150q-112 11 -217 11h-1772q-129 0 -241 -11zM762 715q36 194 176.5 329.5t316.5 135.5q117 0 201.5 -63t118.5 -169.5t12 -232.5 q-22 -127 -93.5 -234t-178 -170t-223.5 -63q-116 0 -199.5 63t-117.5 170t-13 234zM899 715q-17 -89 3 -169.5t75.5 -132t134.5 -51.5q78 0 151.5 51.5t122 132t64.5 169.5q16 88 -5 168t-76.5 131t-133.5 51q-117 0 -214.5 -106.5t-121.5 -243.5zM1632 262q25 86 35 139 l113 641q7 49 12 125h330q63 0 111.5 -14.5t85.5 -46t50.5 -89.5t0.5 -138q-39 -217 -222 -271l80 -215q35 -93 49 -109q8 -10 17 -10l-2 -12h-174q0 24 -9 64l-98 264h-184l-29 -172q-5 -29 -18 -156h-148zM1847 702h195q156 0 190 177q31 176 -133 176h-186 q-9 -27 -15 -64z" />
<glyph horiz-adv-x="1269" d="M14 -10l25 149q102 -10 237 -10h594q120 0 222 10l-25 -149q-102 10 -217 10h-594q-140 0 -242 -10zM61 262q19 64 35 150l107 606q16 105 18 149h148q-28 -110 -41 -174l-103 -583q-12 -77 -16 -148h-148zM244 1294l26 150q98 -10 238 -10h594q116 0 221 10l-27 -150 q-108 11 -217 11h-594q-129 0 -241 -11zM362 262q3 12 15 58t20 81l109 619q13 90 16 147h140l352 -678l92 525q9 51 18 153h150q-27 -95 -33 -120l-115 -656q-8 -57 -12 -129h-139l-357 670l-94 -541q-8 -57 -12 -129h-150z" />
<glyph horiz-adv-x="2152" d="M55 0q30 113 39 156l199 1130q1 7 14 148h182q-33 -120 -45 -185l-75 -430l598 510q88 77 90 105h254l-4 -21q-31 0 -146 -92l-649 -561l242 -330q101 -144 202 -226t217.5 -110t240.5 -14t290 67l-6 -38q-362 -169 -614 -116.5t-468 351.5l-268 356l-92 -526 q-15 -100 -18 -174h-183zM1006 358l4 21q20 0 63 61l504 877q46 79 63 133h144q-3 -42 8 -100l221 -1012q20 -78 47 -78l-4 -20h-205q10 51 2 102l-43 205h-518l-41 -74q-27 -47 -43 -115h-202zM1368 680h414l-113 532z" />
<glyph horiz-adv-x="2170" d="M55 0q30 113 39 156l199 1130q1 7 14 148h182q-33 -120 -45 -185l-75 -430l602 516q83 73 86 99h254l-4 -21q-31 0 -146 -92l-649 -561l242 -330q101 -144 202 -226t217.5 -110t240.5 -14t290 67l-6 -38q-362 -169 -614 -116.5t-468 351.5l-268 356l-92 -526 q-15 -100 -18 -174h-183zM1270 240q33 121 45 186l151 864q4 23 15 144h686l-19 -238l-20 -8q-12 70 -40.5 92.5t-109.5 22.5h-352q-10 -43 -14 -60l-53 -309h133q149 0 243 20l-30 -170q-89 21 -238 21h-131l-72 -404q-4 -24 -4 -34h371q82 0 129 25t84 89l18 -8l-98 -233 h-694z" />
<glyph horiz-adv-x="1789" d="M55 0q30 113 39 156l199 1130q1 7 14 148h182q-33 -120 -45 -185l-75 -430l602 514q84 77 86 101h254l-4 -21q-31 0 -146 -92l-649 -561l242 -330q101 -144 202 -226t217.5 -110t240.5 -14t290 67l-6 -38q-362 -169 -614 -116.5t-468 351.5l-268 356l-92 -526 q-15 -100 -18 -174h-183zM1329 240q27 85 45 186l154 864q8 63 12 144h182q-36 -137 -47 -191l-149 -850q-6 -49 -15 -153h-182z" />
<glyph horiz-adv-x="2336" d="M55 0q30 113 39 156l199 1130q1 7 14 148h182q-33 -120 -45 -185l-75 -430l598 510q88 77 90 105h254l-4 -21q-31 0 -146 -92l-649 -561l242 -330q101 -144 202 -226t217.5 -110t240.5 -14t290 67l-6 -38q-362 -169 -614 -116.5t-468 351.5l-268 356l-92 -526 q-15 -100 -18 -174h-183zM1214 838q28 168 120 308.5t230.5 224t293.5 83.5q156 0 264.5 -83.5t150.5 -223.5t13 -309q-22 -126 -81.5 -239t-143.5 -196.5t-194 -132.5t-227 -49q-155 0 -263.5 83.5t-150.5 224.5t-12 309zM1372 838q-21 -118 4 -227t100.5 -182t188.5 -73 q86 0 166 42.5t139 112t99.5 154.5t56.5 173q21 119 -3 227t-98.5 181t-187.5 73q-86 0 -166.5 -42.5t-140 -111.5t-101 -154t-57.5 -173z" />
<glyph horiz-adv-x="2125" d="M55 0q30 113 39 156l199 1130q1 7 14 148h182q-33 -120 -45 -185l-75 -430l598 510q88 77 90 105h254l-4 -21q-31 0 -146 -92l-649 -561l242 -330q101 -144 202 -226t217.5 -110t240.5 -14t290 67l-6 -38q-362 -169 -614 -116.5t-468 351.5l-268 356l-92 -526 q-15 -100 -18 -174h-183zM1194 281l86 268l25 2q-8 -71 2.5 -101.5t60.5 -56.5q80 -37 201 -37q273 0 313 209q9 54 -4.5 96t-44 69.5t-72.5 49.5t-89 40.5l-94 37t-88 43t-71 56t-42 79t-1 107.5q24 137 140 224t305 87q91 0 182 -27q88 -20 117 -20l-82 -244l-23 -2 q11 87 -45 123q-56 35 -170 35q-125 0 -187.5 -45t-74.5 -111q-10 -57 16.5 -98.5t75.5 -66.5t110 -47.5t121 -50.5t107 -65.5t69 -102t7 -150.5q-29 -163 -159 -262t-339 -99q-109 0 -200 31q-95 26 -152 29z" />
<glyph horiz-adv-x="2342" d="M55 0q30 113 39 156l199 1130q1 7 14 148h182q-33 -120 -45 -185l-75 -430l598 510q88 77 90 105h254l-4 -21q-31 0 -146 -92l-649 -561l242 -330q101 -144 202 -226t217.5 -110t240.5 -14t290 67l-6 -38q-362 -169 -614 -116.5t-468 351.5l-268 356l-92 -526 q-15 -100 -18 -174h-183zM1354 653l104 588q15 89 23 193h178q-31 -108 -47 -197l-105 -584q-24 -137 32 -217t200 -80q143 0 227.5 80t108.5 217l104 588q18 108 21 193h180q-32 -111 -47 -197l-105 -584q-37 -213 -168 -322.5t-344 -109.5t-306 109.5t-56 322.5z" />
<glyph horiz-adv-x="2226" d="M55 0q30 113 39 156l199 1130q1 7 14 148h182q-33 -120 -45 -185l-75 -430l598 510q88 77 90 105h254l-4 -21q-31 0 -146 -92l-649 -561l242 -330q101 -144 202 -226t217.5 -110t240.5 -14t290 67l-6 -38q-362 -169 -614 -116.5t-468 351.5l-268 356l-92 -526 q-15 -100 -18 -174h-183zM1434 1413l4 21h198q-8 -41 13 -109l143 -442l301 444q44 68 49 107h197l-4 -21q-24 0 -72 -63l-422 -641l-51 -283q-7 -51 -13.5 -115.5t-7.5 -70.5h-180q27 92 47 200l47 262l-196 637q-23 74 -53 74z" />
<glyph horiz-adv-x="1738" d="M55 0q30 113 39 156l199 1130q1 7 14 148h182q-33 -120 -45 -185l-188 -1075q-4 -20 -4 -31h520q82 0 129 25.5t84 89.5l21 -8l-103 -250h-848zM539 268l4 21q26 0 71 73l545 951q53 92 66 137h143q-3 -42 8 -100l221 -1006q20 -84 48 -84l-5 -20h-202q7 55 0 102 l-41 193h-525l-90 -156q-34 -69 -39 -111h-204zM946 668h424l-117 544z" />
<glyph horiz-adv-x="1722" d="M14 -10l25 149q102 -10 237 -10h1047q119 0 221 10l-24 -149q-102 10 -217 10h-1047q-140 0 -242 -10zM141 715q34 193 175 329t317 136q117 0 202 -63t119 -169.5t11 -232.5q-22 -127 -94 -234t-178.5 -170t-223.5 -63q-116 0 -199.5 63t-117 170t-11.5 234zM244 1294 l26 150q98 -10 238 -10h1046q117 0 222 10l-27 -150q-108 11 -217 11h-1047q-129 0 -241 -11zM276 715q-16 -90 4.5 -170t76.5 -131.5t135 -51.5q116 0 213.5 107t123.5 246q16 88 -5 168t-76.5 131t-133.5 51q-118 0 -215 -106t-123 -244zM1012 262q26 108 30 129l115 651 q10 69 14 125h539l-14 -170l-17 -4q-5 37 -23 49.5t-73 12.5h-293q-1 -6 -4 -19.5t-5.5 -26t-4.5 -24.5l-39 -223h143q82 0 168 8l-22 -129q-82 8 -166 8h-143l-43 -239q0 -2 -17 -148h-145z" />
<glyph horiz-adv-x="4294" d="M6 -10l25 149q102 -10 237 -10h3638q119 0 221 10l-25 -149q-102 10 -217 10h-3637q-140 0 -242 -10zM133 715q34 193 175 329t317 136q117 0 201.5 -63t118.5 -169.5t11 -232.5q-22 -127 -93.5 -234t-178 -170t-223.5 -63q-116 0 -199.5 63t-117 170t-11.5 234z M233 1294l29 150q98 -10 238 -10h3637q116 0 221 10l-26 -150q-112 11 -218 11h-3639q-127 0 -242 -11zM268 715q-16 -90 4.5 -170t76 -131.5t134.5 -51.5q116 0 214 107t124 246q16 88 -5 168t-76.5 131t-133.5 51q-118 0 -215 -106t-123 -244zM1004 262q16 54 30 129 l115 651q10 69 14 125h539l-14 -170l-17 -4q-5 37 -23 49.5t-73 12.5h-293q-2 -7 -5.5 -22t-4.5 -21l-43 -250h143q82 0 168 8l-22 -129q-82 8 -166 8h-144l-43 -241q-5 -37 -10 -89t-6 -57h-145zM1966 967l57 200h422h275l-13 -200l-20 -6q-8 59 -30 76.5t-91 17.5h-147 q-13 -48 -19 -88l-102 -578q-5 -32 -8 -75t-4 -52h-150q23 80 35 141l106 598q1 12 4.5 31t4.5 23h-150q-67 0 -96 -17.5t-58 -76.5zM2685 262q1 6 14 55t21 86l104 598q15 102 21 166h149q-3 -13 -10.5 -39t-14.5 -53.5t-12 -58.5l-39 -221h457l37 206q13 86 20 166h148 q-3 -13 -10 -39t-14 -53.5t-13 -58.5l-109 -627q-8 -56 -12 -127h-149q1 6 14 55t21 86l49 281h-459l-53 -299q-8 -68 -11 -123h-149zM3547 262q29 118 31 129l115 651q12 80 12 125h559l-14 -170l-17 -4q-5 37 -23 49.5t-73 12.5h-311q-5 -25 -15 -70l-32 -188h135 q82 0 168 8l-25 -129q-78 8 -164 8h-135l-41 -238q-9 -63 -10 -71h336q56 0 78.5 12.5t40.5 48.5l16 -4l-68 -170h-563z" />
<glyph horiz-adv-x="1931" d="M14 -10l25 149q102 -10 237 -10h1258q119 0 221 10l-24 -149q-102 10 -218 10h-1257q-140 0 -242 -10zM141 715q34 194 176.5 329.5t323.5 135.5q120 0 206 -63t120 -169.5t12 -232.5q-34 -195 -177 -331t-325 -136q-120 0 -205.5 63.5t-119 170t-11.5 233.5zM244 1294 l26 150q98 -10 238 -10h1257q117 0 222 10l-29 -150q-108 11 -217 11h-1256q-129 0 -241 -11zM276 715q-16 -90 5 -170t78 -131.5t139 -51.5q122 0 221 107t123 246q17 89 -3.5 168.5t-78 130.5t-139.5 51t-156.5 -51t-123 -130.5t-65.5 -168.5zM1024 262q23 80 35 139 l108 619q15 100 17 147h139l354 -678l92 525q15 107 17 153h149q-20 -74 -32 -131l-109 -620q-8 -47 -18 -154h-140l-354 670l-90 -516q-8 -47 -18 -154h-150z" />
<glyph horiz-adv-x="3291" d="M14 -10l25 149q102 -10 237 -10h2618q119 0 221 10l-27 -149q-102 10 -217 10h-2615q-140 0 -242 -10zM141 715q34 194 176.5 329.5t323.5 135.5q120 0 206 -63t120 -169.5t12 -232.5q-34 -195 -177 -331t-325 -136q-120 0 -205.5 63.5t-119 170t-11.5 233.5zM244 1294 l26 150q98 -10 238 -10h2617q116 0 221 10l-28 -150q-108 11 -217 11h-2616q-129 0 -241 -11zM276 715q-16 -90 5 -170t78 -131.5t139 -51.5q122 0 221 107t123 246q17 89 -3.5 168.5t-78 130.5t-139.5 51t-156.5 -51t-123 -130.5t-65.5 -168.5zM1024 262q23 80 35 139 l108 619q15 100 17 147h139l354 -678l92 525q15 107 17 153h149q-3 -13 -9.5 -37.5t-12.5 -49t-12 -52.5l-113 -637q-3 -31 -6.5 -72.5t-5.5 -56.5h-140l-354 670l-96 -541q-5 -32 -8 -77t-4 -52h-150zM1903 262q22 77 36 154l107 604q11 72 16 147h150q-36 -149 -43 -188 l-92 -514h2q-11 -59 -15 -90h328q56 0 78.5 12.5t40.5 48.5l18 -4l-67 -170h-559zM2589 1149l2 18h164q-5 -33 14 -106l102 -316l226 340q30 58 32 82h166l-2 -18q-25 0 -90 -94l-291 -445l-33 -186q-9 -55 -18 -162h-149q15 48 32 127l39 217l-151 484q-19 59 -43 59z" />
<glyph horiz-adv-x="2263" d="M55 0q30 113 39 156l199 1130q1 7 14 148h506q202 -2 299.5 -115.5t61.5 -323.5q-30 -162 -129 -273.5t-236 -154.5l55 -135q111 -281 313 -347t539 56l-6 -37q-189 -91 -351 -115t-288 17t-219 138.5t-150 248.5l-61 150h-322l-63 -369q-15 -100 -18 -174h-183zM346 684 h328q129 0 220 82.5t114 220.5q26 141 -35 222t-193 81h-327q-4 -23 -9 -41zM1114 358l4 21q27 0 64 61l504 877q46 79 63 133h143q-2 -38 9 -100l221 -1012q20 -78 47 -78l-4 -20h-203q7 55 0 102l-43 205h-518l-41 -74q-30 -62 -43 -115h-203zM1477 680h413l-112 532z" />
<glyph horiz-adv-x="2127" d="M55 0q30 113 39 156l199 1130q1 7 14 148h506q202 -2 299.5 -115.5t61.5 -323.5q-30 -162 -129 -273.5t-236 -154.5l55 -135q111 -281 313 -347t539 56l-6 -37q-189 -91 -351 -115t-288 17t-219 138.5t-150 248.5l-61 150h-322l-63 -369q-15 -100 -18 -174h-183zM346 684 h328q129 0 220 82.5t114 220.5q26 141 -35 222t-193 81h-327q-4 -23 -9 -41zM1272 240q27 99 43 182l153 864q5 36 15 148h686l-19 -238l-20 -8q-12 70 -40.5 92.5t-109.5 22.5h-352q-1 -4 -6.5 -25.5t-7.5 -34.5l-53 -309h131q153 0 243 20l-30 -170q-89 21 -236 21h-131 l-72 -402l-6 -36h373q82 0 129 25t84 89l20 -8l-100 -233h-694z" />
<glyph horiz-adv-x="1802" d="M55 0q30 113 39 156l199 1130q1 7 14 148h506q202 -2 299.5 -115.5t61.5 -323.5q-30 -162 -129 -273.5t-236 -154.5l55 -135q111 -281 313 -347t539 56l-6 -37q-189 -91 -351 -115t-288 17t-219 138.5t-150 248.5l-61 150h-322l-63 -369q-15 -100 -18 -174h-183zM346 684 h328q129 0 220 82.5t114 220.5q26 141 -35 222t-193 81h-327q-4 -23 -9 -41zM1341 240q27 85 45 186l150 840q12 77 16 168h181q-36 -137 -47 -191l-146 -827q-8 -53 -18 -176h-181z" />
<glyph horiz-adv-x="2441" d="M55 0q30 113 39 156l199 1130q1 7 14 148h506q202 -2 299.5 -115.5t61.5 -323.5q-30 -162 -129 -273.5t-236 -154.5l55 -135q111 -281 313 -347t539 56l-6 -37q-189 -91 -351 -115t-288 17t-219 138.5t-150 248.5l-61 150h-322l-63 -369q-15 -100 -18 -174h-183zM346 684 h328q129 0 220 82.5t114 220.5q26 141 -35 222t-193 81h-327q-4 -23 -9 -41zM1319 838q22 126 81 239t143.5 196t194 132t226.5 49q155 0 263.5 -83.5t150 -223.5t12.5 -309q-22 -126 -81 -239t-143 -196.5t-193.5 -132.5t-225.5 -49q-156 0 -265 83.5t-151 224.5t-12 309z M1470 699.5q2 -68.5 25 -131t58.5 -109.5t92.5 -75t126 -28q85 0 164.5 42.5t138.5 112t100 154.5t57 173q10 70 7.5 138.5t-25 130.5t-57.5 109t-90.5 75t-124.5 28q-114 0 -215.5 -73t-164.5 -181.5t-83 -226.5q-11 -70 -9 -138.5z" />
<glyph horiz-adv-x="2152" d="M55 0q30 113 39 156l199 1130q1 7 14 148h506q202 -2 299.5 -115.5t61.5 -323.5q-30 -162 -129 -273.5t-236 -154.5l55 -135q111 -281 313 -347t539 56l-6 -37q-189 -91 -351 -115t-288 17t-219 138.5t-150 248.5l-61 150h-322l-63 -369q-15 -100 -18 -174h-183zM346 684 h328q129 0 220 82.5t114 220.5q26 141 -35 222t-193 81h-327q-4 -23 -9 -41zM1241 281l86 268l23 2q-6 -71 4.5 -101.5t60.5 -56.5q76 -37 201 -37q149 0 222 59t89 150q9 54 -4 96t-43.5 69.5t-72 49.5t-88.5 40.5l-94 37t-88.5 43t-71 56t-41.5 79t-1 107.5 q23 137 139.5 224t305.5 87q93 0 184 -27q85 -20 113 -20l-80 -244l-23 -2q11 87 -45 123q-56 35 -172 35q-125 0 -186.5 -44.5t-73.5 -111.5q-8 -45 7 -80.5t46 -58t73 -43.5t89 -36.5t94 -38t87.5 -47.5t69 -64.5t39.5 -90t-1 -122.5q-29 -164 -158 -262.5t-340 -98.5 q-101 0 -194 29q-98 28 -156 31z" />
<glyph horiz-adv-x="2342" d="M55 0q30 113 39 156l199 1130q1 7 14 148h506q202 -2 299.5 -115.5t61.5 -323.5q-30 -162 -129 -273.5t-236 -154.5l55 -135q111 -281 313 -347t539 56l-6 -37q-189 -91 -351 -115t-288 17t-219 138.5t-150 248.5l-61 150h-322l-63 -369q-15 -100 -18 -174h-183zM346 684 h328q129 0 220 82.5t114 220.5q26 141 -35 222t-193 81h-327q-4 -23 -9 -41zM1350 653l96 539v6l2 16q24 131 27 220h180q-31 -107 -49 -197l-103 -584q-24 -137 32 -217t200 -80q143 0 227.5 80t108.5 217l104 588q17 123 20 193h181q-32 -111 -47 -197l-105 -584 q-37 -212 -168.5 -322t-343.5 -110q-214 0 -307 109.5t-55 322.5z" />
<glyph horiz-adv-x="2152" d="M55 0q30 113 39 156l199 1130q1 7 14 148h506q202 -2 299.5 -115.5t61.5 -323.5q-30 -162 -129 -273.5t-236 -154.5l55 -135q111 -281 313 -347t539 56l-6 -37q-189 -91 -351 -115t-288 17t-219 138.5t-150 248.5l-61 150h-322l-63 -369q-15 -100 -18 -174h-183zM346 684 h328q129 0 220 82.5t114 220.5q26 141 -35 222t-193 81h-327q-4 -23 -9 -41zM1360 1413l4 21h197q-6 -45 14 -113l143 -438l299 442q42 66 51 109h197l-4 -21q-24 0 -72 -63l-424 -641l-47 -275q-13 -75 -22 -194h-180q27 91 47 198l47 264l-197 639q-27 72 -53 72z" />
<glyph horiz-adv-x="2529" d="M14 -10l25 149q102 -10 237 -10h1850q119 0 221 10l-25 -149q-102 10 -217 10h-1849q-140 0 -242 -10zM186 967l58 200h422h272l-10 -200l-21 -6q-8 59 -30 76.5t-91 17.5h-147q-10 -43 -18 -88l-101 -566q-2 -13 -14 -139h-150q23 80 35 141l107 598q1 12 4.5 32.5 t3.5 21.5h-150q-67 0 -95.5 -17.5t-57.5 -76.5zM244 1294l26 150q98 -10 238 -10h1849q116 0 221 10l-26 -150q-112 11 -217 11h-1850q-129 0 -241 -11zM905 262q1 6 14 55t21 86l104 598q15 102 21 166h149q-2 -9 -11.5 -43t-17 -65.5t-14.5 -71.5l-32 -192h456l37 206 q15 102 21 166h147q-39 -165 -45 -200l-88 -502q0 -4 -2 -8l-6 -39q-14 -82 -17 -156h-149q1 6 14 55t21 86l49 281h-459l-51 -295q-8 -56 -12 -127h-150zM1767 262q21 83 31 127l115 653q12 80 12 125h559l-14 -170l-16 -4q-5 37 -23.5 49.5t-73.5 12.5h-311l-14 -70 l-33 -188h135q82 0 168 8l-25 -129q-78 8 -163 8h-136l-49 -281q0 -12 -4 -28h338q56 0 78.5 12.5t40.5 48.5l16 -4l-67 -170h-564z" />
<glyph horiz-adv-x="1830" d="M14 -10l25 149q102 -10 237 -10h1156q119 0 221 10l-25 -149q-102 10 -217 10h-1155q-140 0 -242 -10zM186 967l58 200h422h272l-10 -200l-21 -6q-8 59 -30 76.5t-91 17.5h-147q-10 -43 -18 -88l-103 -578q-5 -32 -8 -75t-4 -52h-150q23 80 35 141l107 598q1 12 4.5 32.5 t3.5 21.5h-150q-67 0 -95.5 -17.5t-57.5 -76.5zM244 1294l26 150q98 -10 238 -10h1155q116 0 221 10l-26 -150q-108 11 -218 11h-1155q-129 0 -241 -11zM930 715q36 194 176 329.5t317 135.5q116 0 200.5 -63t118.5 -169.5t11 -232.5q-33 -194 -174.5 -330.5t-318.5 -136.5 q-176 0 -270 136.5t-60 330.5zM1067 715q-17 -89 3 -169.5t75.5 -132t134.5 -51.5q117 0 214.5 107t123.5 246q16 88 -5 168t-76.5 131t-133.5 51q-79 0 -152 -51t-120.5 -130.5t-63.5 -168.5z" />
<glyph horiz-adv-x="2103" d="M195 1184l71 250h621h1270l-19 -250l-20 -8q-11 67 -33 89t-86 25h-316q-2 -6 -5 -20.5t-5 -20.5l-188 -1075q-11 -70 -19 -174h-182q30 113 39 156l184 1038h-2l17 96h-672q-5 -31 -8 -41l-189 -1075q-8 -56 -18 -174h-182l12 48t16 64.5t15 69.5l178 1012l16 96h-317 q-65 -3 -95 -25t-63 -89z" />
<glyph horiz-adv-x="3235" d="M6 -10l25 149q102 -10 237 -10h2579q119 0 221 10l-27 -149q-102 10 -217 10h-2576q-140 0 -242 -10zM209 1151l2 16h162q-8 -62 -4 -102l61 -481l285 583h86l86 -589l241 505q19 44 25 84h162l-2 -16q-23 0 -62 -80l-321 -678q-36 -81 -51 -137h-88q3 59 -3 129l-75 520 l-254 -526q-28 -63 -45 -123h-90q7 68 -2 160l-86 686q-11 49 -27 49zM233 1294l29 150q98 -10 238 -10h2578q116 0 221 10l-28 -150q-108 11 -217 11h-2579q-127 0 -242 -11zM1260 262q22 86 30 129l111 625q15 104 18 151h148q-30 -119 -41 -182l-92 -520 q-17 -99 -27 -203h-147zM1634 967l58 200h422h272l-10 -200l-21 -6q-8 59 -30 76.5t-91 17.5h-147q-12 -48 -19 -88l-88 -502q-17 -89 -26 -203h-150q23 80 35 141l107 598q1 12 4.5 32.5t3.5 21.5h-150q-67 0 -95.5 -17.5t-57.5 -76.5zM2353 262q1 6 14 55t21 86l104 598 q15 102 21 166h147q-39 -165 -45 -200l-28 -172h456l37 206q15 102 21 166h147q-39 -165 -45 -200l-88 -502q-20 -116 -27 -203h-147q1 6 14 55t21 86l49 281h-459l-39 -219q-15 -86 -24 -203h-150z" />
<glyph horiz-adv-x="1046" d="M95 354q-1 82 14 174q27 156 94.5 278t175.5 195.5t239 73.5q100 0 172.5 -42.5t110 -116t49.5 -173.5t-10 -215q-43 -239 -180.5 -393.5t-333.5 -154.5q-79 0 -142 27.5t-102.5 77.5t-62.5 118.5t-24 150.5zM254.5 413q-2.5 -56 7 -110.5t31 -95.5t62.5 -66.5t98 -25.5 q69 0 127 37.5t97 100t64.5 131.5t38.5 144q10 58 12.5 113.5t-7 110.5t-30.5 96t-61 66.5t-96 25.5q-57 0 -107.5 -25.5t-86 -66.5t-64 -96t-45.5 -110.5t-27 -113.5q-11 -59 -13.5 -115z" />
<glyph horiz-adv-x="559" d="M16 0l2 20q64 7 86.5 41.5t36.5 114.5l129 735q9 60 -4 88.5t-67 34.5l2 21h342l-2 -21q-64 -7 -85.5 -40.5t-35.5 -114.5l-129 -740q-9 -58 3.5 -85.5t65.5 -33.5l-2 -20h-342z" />
<glyph horiz-adv-x="983" d="M20 0l3 25l483 458q87 79 125 136t55 112q27 98 -11 153.5t-143 55.5q-162 0 -258 -170l-108 76q148 229 397 229q75 0 132 -19t90.5 -51.5t53 -76t18.5 -93t-13 -102.5q-32 -125 -162 -250l-350 -342q122 -8 219 -8h41q82 0 129 25.5t84 89.5l20 -8l-98 -240h-707z" />
<glyph horiz-adv-x="983" d="M25 -6l141 67q21 -89 70 -127t135 -38q67 0 118 20.5t82 56t48.5 75t25.5 87.5q21 120 -37.5 183t-220.5 63l21 121h2v6q76 0 131 19t85.5 53t46 68.5t23.5 78.5q35 213 -155 213q-75 0 -132 -37.5t-106 -128.5l-117 68q151 233 383 233q63 0 113.5 -14t82.5 -39t55 -58 t31 -70.5t10 -78.5t-7 -80q-33 -187 -184 -278q177 -85 135 -316q-29 -171 -148.5 -276t-306.5 -105q-256 0 -325 234z" />
<glyph horiz-adv-x="1124" d="M-23 0l840 1055h101l-162 -920q122 0 215 19l-68 -174q-68 17 -170 20q-24 -126 -31 -240h-172q25 90 45 187l9 53h-607zM246 133h362l103 584z" />
<glyph horiz-adv-x="954" d="M-2 -25l141 64q21 -71 66.5 -107t128.5 -36q122 0 197 74t96 194q21 123 -30 198.5t-173 75.5q-129 0 -225 -100l-105 82l215 608l4 27h510l-14 -236l-21 -8q-11 71 -37 91t-108 20h-223l-144 -390q87 41 189 41q186 0 270 -108.5t51 -294.5q-33 -184 -155.5 -297 t-306.5 -113q-254 0 -326 215z" />
<glyph horiz-adv-x="1097" d="M102.5 283.5q-11.5 92.5 10.5 201.5q28 159 75.5 288.5t109.5 227.5t148 182t179.5 147t216.5 126l53 -123q-219 -112 -343.5 -231t-193.5 -291q125 74 258 74q85 0 154 -28.5t116.5 -85.5t65 -143t-1.5 -200q-16 -89 -57.5 -168.5t-105 -142.5t-154 -100t-195.5 -37 q-103 0 -176.5 38t-110.5 105.5t-48.5 160zM259 341.5q4 -67.5 24 -117.5t67.5 -79.5t118.5 -29.5q59 0 109.5 19.5t86 50.5t62.5 73.5t42.5 84.5t23.5 87q27 158 -29 239t-184 79q-113 0 -198.5 -70.5t-107.5 -171.5q-1 -4 -2 -11t-2 -10q-15 -76 -11 -143.5z" />
<glyph horiz-adv-x="935" d="M106 -358q15 57 54 168q13 43 20 59q0 4 4 12q55 152 152.5 330t215 377.5t183.5 333.5h-411q-81 0 -115 -22t-70 -93l-20 8l69 240h754l-6 -31q-62 -130 -160.5 -304.5t-177 -306t-159.5 -297.5t-126 -306q-23 -88 -30 -168h-177z" />
<glyph horiz-adv-x="1073" d="M88 416q24 133 94 233t170 160q-58 48 -80.5 124t-5.5 169q12 70 43.5 131t83 111.5t131 80t176.5 29.5q78 0 138 -19.5t95 -52.5t57 -78t23.5 -96t-5.5 -106q-35 -190 -191 -293q81 -58 116 -158t11 -231q-33 -195 -169 -317.5t-337 -122.5q-199 0 -291 121t-59 315z M237.5 306.5q7.5 -55.5 29.5 -98t73 -68t125 -25.5q73 0 131.5 25t96 69t60 97t33.5 116q27 153 -32.5 236t-182.5 81q-123 0 -212 -84.5t-115 -232.5q-14 -60 -6.5 -115.5zM426 1100q-37 -223 164 -223h6q210 0 252 229q4 23 5.5 44t-5 54t-23 56.5t-55 41t-94.5 17.5 t-101 -17.5t-70.5 -42t-43.5 -58t-24.5 -55.5t-10.5 -46z" />
<glyph horiz-adv-x="1103" d="M136.5 424q-18.5 87 0.5 201q37 204 175.5 326t334.5 122q197 0 284.5 -123.5t47.5 -349.5q-36 -211 -102 -373t-164 -281t-218.5 -201.5t-279.5 -145.5l-53 122q218 82 350.5 203t210.5 309q-123 -71 -256 -71q-80 0 -147.5 29.5t-116 87.5t-67 145zM297 629 q-27 -155 29 -242.5t176 -87.5q119 0 204 76.5t113 202.5l6 36q28 155 -24.5 239.5t-184.5 84.5q-130 0 -211.5 -83t-107.5 -226z" />
<glyph horiz-adv-x="843" d="M172 985q37 208 149.5 338.5t264.5 130.5q150 0 216 -131t29 -338q-37 -209 -149 -339t-264 -130q-151 0 -216.5 130t-29.5 339zM305.5 865.5q-0.5 -56.5 11 -108t44 -82t83.5 -30.5q49 0 91.5 30.5t71.5 81.5t48.5 108.5t30.5 119.5t11.5 119t-10.5 108t-42.5 82 t-81.5 31q-51 0 -94.5 -30.5t-72.5 -82.5t-48.5 -108.5t-30.5 -118.5q-11 -63 -11.5 -119.5z" />
<glyph horiz-adv-x="493" d="M98 532l4 21q45 4 67 29t32 71l112 635h-86l2 17q58 35 86 61.5t66 83.5h102l-137 -780q-10 -57 1 -85t59 -32l-5 -21h-303z" />
<glyph horiz-adv-x="743" d="M96 532l361 426q56 68 85 118.5t42 105.5q15 60 -8.5 101.5t-92.5 41.5q-95 0 -157 -100l-97 59q47 75 118.5 122.5t168.5 47.5q67 0 116.5 -23.5t72.5 -62t31 -87t-7 -99.5q-28 -110 -129 -232l-244 -291q67 -6 156 -6q58 0 92 19t62 67l22 -6l-84 -201h-508z" />
<glyph horiz-adv-x="729" d="M121 682l121 53q13 -43 48 -66.5t83 -23.5q65 0 111.5 40t56.5 108q9 45 -2.5 78.5t-38 51t-57.5 25.5t-66 8l18 103h2v6q79 0 127.5 39t59.5 98q10 54 -15 88.5t-84 34.5q-45 0 -83.5 -23.5t-61.5 -68.5l-104 51q47 80 118 125t160 45q125 0 177.5 -72.5t33.5 -175.5 q-22 -124 -131 -192q115 -67 90 -221q-22 -124 -112 -200.5t-218 -76.5q-92 0 -153.5 47.5t-79.5 118.5z" />
<glyph horiz-adv-x="794" d="M90 748l528 686h134l-101 -566q76 2 156 17l-57 -156q-44 13 -121 19l-4 -21h2q-17 -99 -25 -195h-149q14 49 30 117l17 99h-410zM311 866h211l60 338z" />
<glyph horiz-adv-x="706" d="M117 666l125 79q8 -100 118 -100q141 0 168 168q30 172 -116 172q-91 0 -138 -55l-86 69l148 416l4 19h360l-14 -199l-27 -8q-7 54 -29.5 70t-88.5 16h-125l-74 -217q46 18 107 18q127 0 184.5 -77.5t32.5 -215.5q-25 -148 -115.5 -226.5t-214.5 -78.5q-164 0 -219 150z " />
<glyph horiz-adv-x="757" d="M143 823q2 4 2 13q23 135 67.5 238t110 174.5t141.5 119.5t177 86l33 -108q-128 -52 -202 -113t-118 -154q75 24 127 27q126 5 193 -72t41 -215q-23 -128 -116 -215.5t-226 -87.5q-92 0 -150 44.5t-76 112.5t-4 150zM289 844q-35 -199 108 -199q77 0 120.5 49t55.5 123 q31 174 -112 174q-70 0 -116.5 -40t-55.5 -107z" />
<glyph horiz-adv-x="684" d="M174 1225l62 209h557l-5 -21q-44 -86 -182.5 -318.5t-191.5 -363.5q-29 -82 -47 -199h-158q21 55 37 101q33 111 93.5 226.5t145 251.5t119.5 202h-258q-66 0 -91.5 -17t-57.5 -77z" />
<glyph horiz-adv-x="763" d="M141 803q13 76 54 138t102 101q-64 67 -43 181q18 107 99 170t192 63q113 0 171.5 -63t39.5 -170q-21 -115 -109 -181q99 -84 72 -241q-22 -121 -111 -203t-229 -82q-139 0 -199.5 82.5t-38.5 204.5zM274 805q-27 -160 127 -160q158 0 185 160q17 86 -19.5 132t-105.5 46 t-120.5 -47t-66.5 -131zM381 1217q-21 -123 102 -123q122 0 142 123q11 56 -13 84t-90 28q-122 0 -141 -112z" />
<glyph horiz-adv-x="757" d="M201 1143q25 140 118.5 225.5t229.5 85.5q133 0 191 -87.5t30 -246.5q-1 -2 -2 -7.5t-2 -8.5q-22 -111 -61 -200.5t-85.5 -150t-109.5 -108t-122 -76t-134 -53.5l-37 109q139 52 215.5 106t126.5 158q-58 -22 -115 -25q-128 -6 -197 72.5t-46 206.5zM344 1145 q-13 -79 18 -122.5t99 -43.5q61 0 104 31.5t58 87.5q4 13 8 43q30 184 -107 184q-150 0 -180 -180z" />
</font>
</defs>
</svg>
